/* XPM */
static char * ennemi_xpm[] = {
"60 60 659 2",
"  	c #0C1317",
". 	c #091114",
"+ 	c #303141",
"@ 	c #4E4D66",
"# 	c #5A5876",
"$ 	c #050C11",
"% 	c #000004",
"& 	c #080919",
"* 	c #222132",
"= 	c #363449",
"- 	c #46455D",
"; 	c #434359",
"> 	c #282A38",
", 	c #0A1115",
"' 	c #2A2B3A",
") 	c #44435A",
"! 	c #48475E",
"~ 	c #3A3A4D",
"{ 	c #2F3040",
"] 	c #292B39",
"^ 	c #1A1E27",
"/ 	c #0B1216",
"( 	c #0A1215",
"_ 	c #00040B",
": 	c #3D4748",
"< 	c #697779",
"[ 	c #808E94",
"} 	c #8996A1",
"| 	c #7C8794",
"1 	c #535967",
"2 	c #2A283B",
"3 	c #272539",
"4 	c #2C2B3D",
"5 	c #2E2F40",
"6 	c #191D25",
"7 	c #6A787A",
"8 	c #AABFC1",
"9 	c #C4DCDF",
"0 	c #C6DEE2",
"a 	c #B1C5CC",
"b 	c #7D8794",
"c 	c #4E4C66",
"d 	c #4B4963",
"e 	c #2A2B39",
"f 	c #0A1317",
"g 	c #071317",
"h 	c #191D26",
"i 	c #313242",
"j 	c #282938",
"k 	c #9CB0B2",
"l 	c #CAE3E6",
"m 	c #DFFAFD",
"n 	c #E0FBFE",
"o 	c #CEE6EB",
"p 	c #A9BAC3",
"q 	c #8F9BA9",
"r 	c #8C98A6",
"s 	c #828C9C",
"t 	c #6A6E84",
"u 	c #52506B",
"v 	c #3D3C51",
"w 	c #171C24",
"x 	c #4F4D67",
"y 	c #403F56",
"z 	c #D9F3F6",
"A 	c #D9F3F7",
"B 	c #CDE5EA",
"C 	c #C7DEE4",
"D 	c #C6DDE3",
"E 	c #B2C6CE",
"F 	c #585672",
"G 	c #4F4D68",
"H 	c #030C12",
"I 	c #1E0103",
"J 	c #3B1310",
"K 	c #3C1816",
"L 	c #261517",
"M 	c #1A1D26",
"N 	c #2A2C3A",
"O 	c #48475F",
"P 	c #4E4D67",
"Q 	c #423F59",
"R 	c #7E8D92",
"S 	c #D7F1F4",
"T 	c #C9E2E4",
"U 	c #C1D8DB",
"V 	c #CAE3E5",
"W 	c #8D9AA7",
"X 	c #5A5875",
"Y 	c #575472",
"Z 	c #3F3E53",
"` 	c #181C24",
" .	c #3D1816",
"..	c #621F14",
"+.	c #3B3A4E",
"@.	c #353349",
"#.	c #9CAFB1",
"$.	c #788788",
"%.	c #788889",
"&.	c #9EB2B4",
"*.	c #CBE4E6",
"=.	c #575473",
"-.	c #3D484A",
";.	c #7C7979",
">.	c #80504C",
",.	c #701F0D",
"'.	c #44130E",
").	c #031317",
"!.	c #444359",
"~.	c #161923",
"{.	c #292A38",
"].	c #545A67",
"^.	c #7D8795",
"/.	c #9CACB6",
"(.	c #B6CBD0",
"_.	c #D7F2F4",
":.	c #778688",
"<.	c #9DB1B3",
"[.	c #C6DDE2",
"}.	c #8D99A7",
"|.	c #585573",
"1.	c #565372",
"2.	c #575572",
"3.	c #51506A",
"4.	c #6B7A7C",
"5.	c #B5C0C1",
"6.	c #977D7B",
"7.	c #712213",
"8.	c #440901",
"9.	c #051317",
"0.	c #1B1E28",
"a.	c #232233",
"b.	c #434259",
"c.	c #7E8996",
"d.	c #B5CBCF",
"e.	c #93A5A8",
"f.	c #C9E2E5",
"g.	c #47465E",
"h.	c #3A4345",
"i.	c #CBE4E7",
"j.	c #CBDEE0",
"k.	c #A0999A",
"l.	c #734946",
"m.	c #562724",
"n.	c #231315",
"o.	c #081013",
"p.	c #29273B",
"q.	c #8E9BA8",
"r.	c #C6DEE3",
"s.	c #DFFBFE",
"t.	c #DEF9FC",
"u.	c #A7B9C2",
"v.	c #696C83",
"w.	c #CBE2E5",
"x.	c #9CABAD",
"y.	c #766F70",
"z.	c #704441",
"A.	c #3C1411",
"B.	c #060F11",
"C.	c #2A283C",
"D.	c #8E9AA8",
"E.	c #B2C6CD",
"F.	c #828B9B",
"G.	c #4F4C68",
"H.	c #3D4749",
"I.	c #9DB0B3",
"J.	c #DAF5F8",
"K.	c #D0EBEE",
"L.	c #B8D2D5",
"M.	c #90AAAE",
"N.	c #787E80",
"O.	c #7D504D",
"P.	c #702213",
"Q.	c #45140F",
"R.	c #3A384F",
"S.	c #C2DADD",
"T.	c #C2DADC",
"U.	c #5B5976",
"V.	c #585473",
"W.	c #AFC9CC",
"X.	c #91ABAF",
"Y.	c #7E999D",
"Z.	c #787E81",
"`.	c #7E524F",
" +	c #46140F",
".+	c #4E4B67",
"++	c #575672",
"@+	c #79888A",
"#+	c #000000",
"$+	c #78888A",
"%+	c #D9F4F7",
"&+	c #749094",
"*+	c #738E92",
"=+	c #797F81",
"-+	c #7E5350",
";+	c #0C1216",
">+	c #CEE7EB",
",+	c #DAF4F7",
"'+	c #C3DBDD",
")+	c #79898A",
"!+	c #D8F2F5",
"~+	c #ADC2C7",
"{+	c #7A8591",
"]+	c #181C25",
"^+	c #7B8B8D",
"/+	c #C3DBDE",
"(+	c #B0CACD",
"_+	c #7D979B",
":+	c #3D3D52",
"<+	c #6C7A7D",
"[+	c #495059",
"}+	c #7A898B",
"|+	c #C9E4E7",
"1+	c #9AB4B8",
"2+	c #748F93",
"3+	c #718C90",
"4+	c #698286",
"5+	c #696E70",
"6+	c #6D4846",
"7+	c #672013",
"8+	c #531910",
"9+	c #241517",
"0+	c #0B161C",
"a+	c #0F1F27",
"b+	c #2C3445",
"c+	c #454960",
"d+	c #44465E",
"e+	c #2A2D3C",
"f+	c #303041",
"g+	c #555370",
"h+	c #52506A",
"i+	c #7C8792",
"j+	c #ADC2C6",
"k+	c #B3C9CC",
"l+	c #92A4A6",
"m+	c #687677",
"n+	c #394141",
"o+	c #7C8C8E",
"p+	c #13182B",
"q+	c #11113F",
"r+	c #22254F",
"s+	c #23264F",
"t+	c #333356",
"u+	c #464560",
"v+	c #C9E3E6",
"w+	c #99B2B6",
"x+	c #728D91",
"y+	c #506467",
"z+	c #3F4547",
"A+	c #432C2C",
"B+	c #541C15",
"C+	c #671F12",
"D+	c #0E1E26",
"E+	c #132C39",
"F+	c #203849",
"G+	c #2E3F53",
"H+	c #2C3A4C",
"I+	c #1B2631",
"J+	c #504E69",
"K+	c #3C3A50",
"L+	c #474E57",
"M+	c #6B797C",
"N+	c #92A5A7",
"O+	c #6A7879",
"P+	c #7B8B8C",
"Q+	c #7A8A8C",
"R+	c #151640",
"S+	c #282669",
"T+	c #39397D",
"U+	c #363771",
"V+	c #333456",
"W+	c #CAE4E7",
"X+	c #9AB3B7",
"Y+	c #718B8F",
"Z+	c #678084",
"`+	c #586D70",
" @	c #354447",
".@	c #080E13",
"+@	c #471916",
"@@	c #0F1E27",
"#@	c #143241",
"$@	c #153241",
"%@	c #1E3141",
"&@	c #2B3141",
"*@	c #18184A",
"=@	c #7E8E99",
"-@	c #C4DCE0",
";@	c #9FB2B4",
">@	c #96A9AB",
",@	c #B9D1D4",
"'@	c #B1C8CC",
")@	c #72818E",
"!@	c #2D2F65",
"~@	c #373680",
"{@	c #42428F",
"]@	c #3B3C82",
"^@	c #99B3B6",
"/@	c #4E6265",
"(@	c #1E272A",
"_@	c #000E13",
":@	c #040F14",
"<@	c #461916",
"[@	c #471A15",
"}@	c #0D181E",
"|@	c #0D212A",
"1@	c #0E212B",
"2@	c #2A3141",
"3@	c #44445B",
"4@	c #323356",
"5@	c #363770",
"6@	c #31307A",
"7@	c #35347B",
"8@	c #818FAA",
"9@	c #C4DCE4",
"0@	c #A5BEC1",
"a@	c #889EAA",
"b@	c #5E6B8E",
"c@	c #3C3C82",
"d@	c #3E3D8A",
"e@	c #424290",
"f@	c #40408B",
"g@	c #373771",
"h@	c #1A1E26",
"i@	c #CFE9EC",
"j@	c #91AAAE",
"k@	c #657E81",
"l@	c #3B4C4F",
"m@	c #060C11",
"n@	c #0A1114",
"o@	c #2A2E3D",
"p@	c #44475F",
"q@	c #464965",
"r@	c #333658",
"s@	c #3F3E8E",
"t@	c #7783AB",
"u@	c #AEC3D4",
"v@	c #C6DEE6",
"w@	c #C9E3E7",
"x@	c #91ABAE",
"y@	c #6A8192",
"z@	c #515C8F",
"A@	c #41418F",
"B@	c #21234E",
"C@	c #091010",
"D@	c #CFEAED",
"E@	c #AFC8CC",
"F@	c #7E989C",
"G@	c #657D80",
"H@	c #3C4C4F",
"I@	c #050A0F",
"J@	c #0B1114",
"K@	c #1C2631",
"L@	c #2D3B4D",
"M@	c #354163",
"N@	c #383C75",
"O@	c #595F9A",
"P@	c #7783AC",
"Q@	c #8A9CB5",
"R@	c #96ADB7",
"S@	c #9BB5B8",
"T@	c #92ACAF",
"U@	c #687F91",
"V@	c #515D90",
"W@	c #393A7E",
"X@	c #091110",
"Y@	c #0D1E24",
"Z@	c #26365D",
"`@	c #393D80",
" #	c #4F5790",
".#	c #617491",
"+#	c #6D8592",
"@#	c #728C93",
"##	c #414683",
"$#	c #3F4B66",
"%#	c #364447",
"&#	c #212C2D",
"*#	c #0B1116",
"=#	c #98B2B5",
"-#	c #688185",
";#	c #4D6164",
">#	c #1F2A2C",
",#	c #0B1619",
"'#	c #0D1E26",
")#	c #242C54",
"!#	c #3A3C7F",
"~#	c #41408F",
"{#	c #42458E",
"]#	c #4C548E",
"^#	c #5B6C8F",
"/#	c #6B8391",
"(#	c #5D6D90",
"_#	c #4F5890",
":#	c #464A8F",
"<#	c #42418F",
"[#	c #4E578C",
"}#	c #5D7185",
"|#	c #364547",
"1#	c #657D81",
"2#	c #3A4A4E",
"3#	c #080F0F",
"4#	c #2B324E",
"5#	c #48527E",
"6#	c #474B90",
"7#	c #545F91",
"8#	c #6A8092",
"9#	c #3E4E50",
"0#	c #39494C",
"a#	c #070E11",
"b#	c #394750",
"c#	c #5C7080",
"d#	c #4F5990",
"e#	c #3F5051",
"f#	c #CAE5E8",
"g#	c #637B7F",
"h#	c #461510",
"i#	c #6F1800",
"j#	c #6E1200",
"k#	c #420000",
"l#	c #000C12",
"m#	c #0C1316",
"n#	c #090F13",
"o#	c #080E12",
"p#	c #1E282B",
"q#	c #364548",
"r#	c #526668",
"s#	c #535F91",
"t#	c #3F3E8A",
"u#	c #4F5B84",
"v#	c #69808E",
"w#	c #6A8386",
"x#	c #516568",
"y#	c #1F292C",
"z#	c #718C8F",
"A#	c #535E90",
"B#	c #3B3A81",
"C#	c #445367",
"D#	c #667E85",
"E#	c #B9D2D4",
"F#	c #869CA0",
"G#	c #526163",
"H#	c #01060C",
"I#	c #584E4E",
"J#	c #8D7C7C",
"K#	c #998E8E",
"L#	c #878D8E",
"M#	c #6A797B",
"N#	c #00010D",
"O#	c #00121E",
"P#	c #202F35",
"Q#	c #364549",
"R#	c #4A5D60",
"S#	c #5C7376",
"T#	c #4E5B84",
"U#	c #3F3E8B",
"V#	c #38387C",
"W#	c #6A8387",
"X#	c #3E4E51",
"Y#	c #95A9AB",
"Z#	c #B0C7CA",
"`#	c #6F7F81",
" $	c #000001",
".$	c #6F787A",
"+$	c #B2BFC1",
"@$	c #CADCDE",
"#$	c #C6DBDE",
"$$	c #0B1C25",
"%$	c #022534",
"&$	c #384F58",
"*$	c #586F74",
"=$	c #4C5F62",
"-$	c #526669",
";$	c #455467",
">$	c #23254E",
",$	c #1F292A",
"'$	c #354445",
")$	c #3F4F52",
"!$	c #7C8C8F",
"~$	c #A9BEC0",
"{$	c #C4DADC",
"]$	c #C9DADC",
"^$	c #BAC9CB",
"/$	c #94A3A5",
"($	c #6E7F82",
"_$	c #52676E",
":$	c #526C73",
"<$	c #698388",
"[$	c #698285",
"}$	c #4C6064",
"|$	c #5D7579",
"1$	c #586F73",
"2$	c #37464A",
"3$	c #1F2447",
"4$	c #313670",
"5$	c #3C4085",
"6$	c #41428D",
"7$	c #393A7D",
"8$	c #0A1211",
"9$	c #5D7377",
"0$	c #4B5E61",
"a$	c #091014",
"b$	c #7B8A8D",
"c$	c #050D12",
"d$	c #414C4E",
"e$	c #868B8D",
"f$	c #ACA7A8",
"g$	c #BBCACC",
"h$	c #B0C8CB",
"i$	c #869FA3",
"j$	c #6A8489",
"k$	c #6F8A8F",
"l$	c #5D757A",
"m$	c #4B646C",
"n$	c #384E56",
"o$	c #213036",
"p$	c #152234",
"q$	c #213355",
"r$	c #303D70",
"s$	c #3C4185",
"t$	c #060D0C",
"u$	c #6C7A7C",
"v$	c #060D12",
"w$	c #404B4D",
"x$	c #848889",
"y$	c #988C8C",
"z$	c #B4B2B3",
"A$	c #D0E3E5",
"B$	c #759094",
"C$	c #587076",
"D$	c #38515C",
"E$	c #0C1F29",
"F$	c #0F212A",
"G$	c #23395A",
"H$	c #323A72",
"I$	c #0B1213",
"J$	c #0A1210",
"K$	c #1D272A",
"L$	c #424C4E",
"M$	c #C3D9DB",
"N$	c #D1E3E6",
"O$	c #DAF2F5",
"P$	c #374A50",
"Q$	c #233D4A",
"R$	c #123040",
"S$	c #0D202A",
"T$	c #0F222A",
"U$	c #143240",
"V$	c #193449",
"W$	c #202C4E",
"X$	c #C8E2E5",
"Y$	c #92AAAD",
"Z$	c #667E82",
"`$	c #637D82",
" %	c #364649",
".%	c #10222C",
"+%	c #0F222B",
"@%	c #1A344A",
"#%	c #1F2245",
"$%	c #C4DDDF",
"%%	c #839698",
"&%	c #3F5257",
"*%	c #3B535B",
"=%	c #374E57",
"-%	c #213037",
";%	c #133140",
">%	c #32336D",
",%	c #1E2245",
"'%	c #CBE3E6",
")%	c #DBF3F6",
"!%	c #D1E4E6",
"~%	c #6E7779",
"{%	c #042C3C",
"]%	c #0E2129",
"^%	c #273C62",
"/%	c #3A4082",
"(%	c #516468",
"_%	c #8C7A79",
":%	c #544747",
"<%	c #0B1E29",
"[%	c #062D3E",
"}%	c #3A3A7E",
"|%	c #712212",
"1%	c #430901",
"2%	c #0A1E27",
"3%	c #0B2C39",
"4%	c #0D1E23",
"5%	c #122B37",
"6%	c #3A3E80",
"7%	c #3D4D50",
"8%	c #748F94",
"9%	c #7C7879",
"0%	c #7F4E49",
"a%	c #6F1700",
"b%	c #450F08",
"c%	c #081E27",
"d%	c #0B1719",
"e%	c #393B7E",
"f%	c #122C39",
"g%	c #1F2145",
"h%	c #212B2E",
"i%	c #374548",
"j%	c #1C0003",
"k%	c #682014",
"l%	c #3D1715",
"m%	c #0E1E24",
"n%	c #1E2145",
"o%	c #32326D",
"p%	c #5C7276",
"q%	c #576C70",
"r%	c #657C80",
"s%	c #0A1110",
"t%	c #222D30",
"u%	c #354346",
"v%	c #02050B",
"w%	c #353573",
"x%	c #2A2C5D",
"y%	c #14192C",
"z%	c #2A2C5E",
"A%	c #343573",
"B%	c #1F2246",
"C%	c #212C2E",
"D%	c #434390",
"E%	c #40408A",
"F%	c #31326C",
"G%	c #242650",
"H%	c #1E2143",
"I%	c #131829",
"J%	c #232650",
"K%	c #242651",
"L%	c #051211",
"M%	c #3C3C83",
"N%	c #2E2F65",
"O%	c #2E2F66",
"P%	c #343572",
"Q%	c #09110C",
"R%	c #3C1712",
"S%	c #31336D",
"T%	c #31326D",
"U%	c #40408C",
"V%	c #23254F",
"W%	c #621F12",
"X%	c #15192E",
"Y%	c #1C2245",
"Z%	c #1E2144",
"`%	c #13182A",
" &	c #2B2D5F",
".&	c #353674",
"+&	c #14192D",
"@&	c #031213",
"#&	c #0B1214",
"$&	c #38397B",
"%&	c #39397C",
"&&	c #0A1212",
"*&	c #251517",
"=&	c #22254D",
"-&	c #373879",
";&	c #09110D",
">&	c #151A2F",
",&	c #0B1212",
"'&	c #373778",
"                                                                  .   + @ # # @ +   .                                   ",
"                                                              $ % & * = - @ @ ; > , .                                   ",
"                                                              ,   ' ) ! ~ + { ] ^   /                                   ",
"                                              / , . . ( / _ % : < [ } | 1 2 3 4 5 ] 6 , (                               ",
"                                                          %   7 8 9 0 a b c d @ @ ) e   ,                               ",
"              f g g f                     ( , h ' i i j h : 7 k l m n o p q r s t u v ] w , (                           ",
"                                          ,   ] ) x x y ] < 8 l z m m A B C D E s F G ) ]   ,                           ",
"          H % I J K L   f             /   M N ~ O P @ Q = R 9 m m S T U U V S D W X Y u Z ' ` , (                       ",
"          g    ..... .  g             ,   ' ) ! +.+ + @.! } 0 n m V #.$.%.&.*.C q X =.F u ) ]   ,                       ",
"      _ % -.< ;.>.,.'.g ).            ,   N ) !.N ~.{.].^./.(.V _.V k :.:.<.V [.}.|.1.2.3.! ~ N M   /                   ",
"      %   4.8 5.6.7.8.  9.            /   0.N ] M a.b.c.a d.e.k f.S V U U V S D W X Y 3.Z +.g.) '   ,                   ",
"  _ % h.< &.i.j.k.l.m.K n.  f                 o., p.@ q.r.T <.k V m n m m s.t.B u.s v.3.v ~ g.) '   ,                   ",
"  %   < 8 i.z w.x.y.z...A.  g             / , B./ C.x D.C _.l T S t.m m m m t.z B E.F.2.G.! ~ N M   /                   ",
"  H.7 I.i.J.K.L.M.N.O.P.Q.  9.            ( , ` ' R.u W C m m S V S.T.T.S.V S m m C D.U.V.P { , o.                      ",
"  < 8 i.z K.W.X.Y.Z.`.7. +  9.            ,   ] ) .+++}.D m n *.k @+:.:.@+#.V m s.C W U.=.P { , o.                      ",
"#+$+S.%+K.L.M.&+*+=+-+7.Q.g ).        / ;+M ' ~ O G 2.F.E >+,+'+%.#+#+#+#+)+S.!+i.~+{+@ d ! ~ ' ]+, (                   ",
"  ^+/+K.(+M._+*+*+N.-+P.Q.  9.        ,   ' ) g.+.:+3.v.s p B T.%.#+#+#+#+@+T.l &.<+[+{ 5 ~ ! ) '   ,                   ",
"}+<.l |+1+2+*+3+4+5+6+7+8+K 9+  f     0+a+b+c+d+e+f+@ g+h+i+j+k+l+m+n+#+#+}+S.'+o+p+q+r+s+t+u+! ~ N M   /               ",
"S.*.S v+w+*+x+4+y+z+A+B+C+.. .  g ;+  D+E+F+G+H+I++ c J+K+L+M+N+k+8 O+#+#+P+S.T.Q+R+S+T+T+U+V++.! ) '   ,               ",
"t.m m W+X+Y+Z+`+ @9..@+@P.P.+@  9.;+  @@E+#@$@%@&@~ ! u+t+*@r+=@-@*.;@)+@+>@,@'@)@!@~@{@{@]@!@V+u+) '   ,               ",
"m n t.|+^@4+/@ @(@_@:@<@7.7.[@  9.    }@a+|@1@2@3@! ~ 4@5@6@7@8@9@!+i.S.T.,@0@a@b@c@d@e@e@f@]@g@t+N h@  /               ",
"t.%+i@L.j@k@l@  m@9.  [@7.7.<@g ).        n@  o@p@q@r@!@]@s@{@t@u@v@w@W+|+L.x@y@z@{@A@{@{@e@{@T+B@.@C@                  ",
"t.D@E@X.F@G@H@.@I@9.  +@P.P.+@  9.      ;+J@;+K@L@M@N@]@f@A@e@O@P@Q@R@S@S@T@Y.U@V@{@A@{@{@e@{@W@r+, X@                  ",
"t.|+^@Y+Z+`+ @  .@g    ...7+B+K 9+  f     ;+  Y@E+Z@`@A@e@{@{@A@{@ #.#+#@#@#+#.# #{@A@{@{@{@{@##$#%#&#  *#              ",
"t.|+=#-#;#%#>#  *#f   9+K B+7+.. .  g         ,#'#)#!#{@e@{@{@~#s@{#]#^#/#/#(#_#:#{@{@{@{@<#{@[#}#`+|#  .@              ",
"t.W+^@1#2#  m@        9.  +@P.P.+@  9.        3#.@4#5#_#6#{@{@{@{@A@{@_#.#.#_#{@A@{@{@{@{@A@{@7#8#G@9#.@I@              ",
"t.W+^@G@0#.@I@        ).g <@7.7.[@  9.        a#;+b#c#.#d#{@A@{@{@<#A@:# # #:#A@<#{@{@{@{@A@{@7#y@k@e#  m@              ",
"m f#w+g#0#  m@        9.  h#i#j#k#% l#  m#n#o#p#q#r#4+8#s#{@A@{@{@{@{@{@{@{@{@{@{@{@{@{@{@t#c@u#v#w#x#%#y#  *#          ",
"t.W+^@1#2#  m@        9.  +@P.P.+@  9.    .@   @`+w#z#y@A#{@A@{@{@{@{@{@A@A@{@{@{@{@{@{@{@B#!@C#D#Y+w#`+ @  .@          ",
"S.E#0@F#G#  H#        l#  I#J#K#L#M#-.N#O#P#Q#R#S#4+Y+v#T#c@U#{@{@{@{@{@{@{@{@{@{@{@{@e@{@V#s+ @`+W#3+1#X#.@I@          ",
"}+Y#,@Z#`#   $        %   .$+$@$#$8 7 $$%$&$*$S#=$-$4+D#;$!@B#{@{@{@{@{@{@{@{@{@{@{@{@e@{@T+>$,$'$-$w#k@)$  m@          ",
"  !$/+/+!$  #+        %   < ~${$]$^$/$($_$:$<$[$-$}$|$1$2$3$4$5$6${@{@{@{@{@{@{@{@{@{@e@{@7$s+.@8$q#`+9$0$ @p#.@a$      ",
"#+b$'+/+o+  #+        c$  d$4.e$K#f$g$h$i$j$k$Y+[$l$m$n$o$p$q$r$s${@{@{@{@{@{@{@{@{@{@e@{@7$s+a$t$p# @0$9$`+q#  .@      ",
"  u$8 8 u$  %         v$  w$7 x$y$z$A$|+1+B$*+Y+4+C$D$#@E$F$#@G$H$]@f@{@{@{@{@{@{@{@{@e@{@7$>$I$J$m@  )$k@w#-$ @K$.@a$  ",
"  L$7 7 L$  v$        %   < ~$M$]$N$O$f#1+B$x+4+x#P$Q$R$S$T$U$V$W$!@c@{@{@{@{@{@{@{@{@e@{@7$s+  8$I@.@X#1#3+W#`+ @  .@  ",
"                      #+  Q+/+m m m m X$Y$Z$`$*$ %.%R$#@.%+%#@@%W$!@c@{@{@{@{@{@{@{@{@{@{@c@!@#%p+.@m# @`+w#3+w#x# @K$m@",
"  c$% % c$            #+  Q+/+m n s.t.$%%%&%*%=%-%E$;%#@.%F$#@G$H$]@f@{@{@{@{@{@{@{@{@{@{@f@c@>%,%*#I$y#%#x#w#3+w#`+ @  ",
"                      %   < 8 '%z )%!%+$~%.%{%$@.%.%#@#@.%]%$@^%/%{@e@{@{@{@{@{@{@{@{@{@{@e@{@7$>$I$J$.@   @`+w#Y+4+(%X#",
"                      v$  H.7 <.l N$z$_%:%<%[%R$1@.%$@#@.%]%#@^%/%{@e@{@{@{@{@{@{@{@{@{@{@e@{@}%s+  8$a$.@K$ @x#w#Y+w#1#",
"                          %   4.8 5.6.|%1%2%3%E+a+.%$@$@.%4%5%Z@6%{@e@{@{@{@{@{@{@{@{@{@{@{@{@c@!@#%p+  m#I@.@7%1#8%B$2+",
"                          _ % -.< 9%0%a%b%}@c%D+}@.%$@$@.%d%D+)#e%{@e@{@{@{@{@{@{@{@{@{@{@{@{@f@c@>%,%  I$I@.@7%G@2+B$B$",
"                              g    ...7+B+K 9+;+f a+E+f%a+p+g%!@c@{@{@{@{@{@{@{@{@{@{@{@{@{@{@e@{@7$s+*#8$h%i%0$9$4+Y+2+",
"                              H % j%J B+k%..l%;+g }@@@m%}@n%o%c@f@{@{@{@{@{@{@{@{@{@{@{@{@{@{@e@{@}%s+.@8$q#`+p%0$y+[$2+",
"                                  9.  +@P.P.+@  9.    8$  s+7${@e@{@{@{@{@{@{@{@{@{@{@{@{@{@{@e@{@7$s+.@8$i%`+q%i%X#r%2+",
"                                  ).g <@7.7.[@  9.  ;+s%  s+}%{@e@{@{@{@{@{@{@{@{@{@{@{@{@{@{@e@{@7$s+*#8$t%i%u%h%7%G@2+",
"                                  9.  [@7.7.<@g ).    J$I$>$7${@e@{@{@{@{@{@{@{@{@{@{@{@{@{@{@e@{@7$>$I$J$    m@  X#k@B$",
"                                  9.  +@P.P.+@  9.    8$  s+7${@e@{@{@{@{@{@{@{@{@{@{@{@{@{@{@e@{@7$s+  8$*#.@v%*#X#1#2+",
"                                  g    ...7+B+K 9+m#f p+#%!@c@{@e@{@{@{@{@{@{@{@{@{@{@{@{@{@{@f@c@w%x%#%y%  m#.@  %#`+1#",
"                                  f   9+K B+7+.. .I$g ,%>%c@f@{@{@{@{@{@{@{@{@{@{@{@{@{@{@{@{@]@!@z%A%>%B%  I$*#  C%%#X#",
"                                      9.  +@P.P.+@8$9.s+7${@D%f@]@]@E%{@{@{@{@{@{@{@{@{@{@f@c@F%,%G%7$7$G%  8$          ",
"                                      ).g <@7.7.[@8$9.s+}%e@e@]@!@!@]@{@{@{@{@{@{@{@{@{@{@c@!@H%I%J%7$}%K%  8$    *#.@m@",
"                                      9.  [@7.7.<@L%).J%}%f@M%A%z%N%c@{@e@{@{@{@{@{@{@D%{@7$s+8$8$G%7$7$G%  8$          ",
"                                      9.  +@P.P.+@8$9.G%7$]@O%x%P%]@f@{@{@{@{@{@{@{@{@e@{@7$>$Q%J$G%7$7$G%  8$          ",
"                                      g    ...7+B+R%9+B%S%T%B%,%T%c@U%f@c@]@f@e@{@E%c@M%f@7$V%Q%J$K%}%}%K%  8$          ",
"                                      f   9+K B+7+W% .X%Y%Z%y%`%B%O%c@]@N%!@]@{@{@]@!@O%]@7$G%8$8$G%7$7$G%  8$          ",
"                                          9.  [@7.7.[@  9.    I$  B%>%A% &z%A%M%f@7$s+B%F%.& &#%+&B%>%>%B%  I$          ",
"                                          ).g <@7.7.[@m#@&I$m##&I$`%,%z%A%P%z%O%]@7$s+`%H%z%w%>%B%X%Z%#%X%  m#          ",
"                                          g    ..... .  g         I$  B%>%F%B%s+$&%&s+I$&&B%>%>%B%  I$                  ",
"                                          f   *&K K *&  f         #&I$+&B%Z%+&=&-&-&>$#&;&+&B%B%>&m#8$I$m#              ",
"                                                                          ,&  =&'&'&=&  ,&                              "};
