/* XPM */
static char *_0d8e227f80644a9d0fd4622074683bfKP69zb9kjn7RQGE4[] = {
/* columns rows colors chars-per-pixel */
"60 60 206 2 ",
"   c None",
".  c #0C1317",
"X  c #0E1519",
"o  c #141617",
"O  c #1E1816",
"+  c #10171B",
"@  c #131A1E",
"#  c #191819",
"$  c #231A16",
"%  c #291B16",
"&  c #311E16",
"*  c #3D2215",
"=  c #161D21",
"-  c #191F21",
";  c #1B2225",
":  c #1E2528",
">  c #21272A",
",  c #242A2D",
"<  c #2A2A2B",
"1  c #252625",
"2  c #322E2E",
"3  c #392D29",
"4  c #2D332A",
"5  c #35352D",
"6  c #262E31",
"7  c #2B3134",
"8  c #293438",
"9  c #353434",
"0  c #333638",
"q  c #353A3B",
"w  c #3A3C3C",
"e  c #3A3833",
"r  c #432414",
"t  c #4B2615",
"y  c #582A14",
"u  c #612C14",
"i  c #6A2F14",
"p  c #6D3013",
"a  c #7E3513",
"s  c #743213",
"d  c #493B34",
"f  c #3D423C",
"g  c #454939",
"h  c #53433C",
"j  c #4B503F",
"k  c #383E40",
"l  c #384447",
"z  c #2A4D53",
"x  c #307079",
"c  c #424746",
"v  c #494B42",
"b  c #5E4C44",
"n  c #554A46",
"m  c #4E5243",
"M  c #565748",
"N  c #515553",
"B  c #675449",
"V  c #795E51",
"C  c #6F5C52",
"Z  c #5E624B",
"A  c #596252",
"S  c #6A6D4F",
"D  c #626553",
"F  c #686A55",
"G  c #7D6356",
"H  c #6E7255",
"J  c #777858",
"K  c #7C6C4B",
"L  c #4E6E6D",
"P  c #853713",
"I  c #8C3912",
"U  c #913A12",
"Y  c #9E3E11",
"T  c #A03F11",
"R  c #A64011",
"E  c #A94212",
"W  c #AF491A",
"Q  c #AE4718",
"!  c #B24B1C",
"~  c #A54A20",
"^  c #A94E24",
"/  c #B54F20",
"(  c #AB542B",
")  c #B75122",
"_  c #B95324",
"`  c #BD5728",
"'  c #B7572B",
"]  c #B85E35",
"[  c #B55D34",
"{  c #BD6037",
"}  c #C25B2E",
"|  c #C45E31",
" . c #C96235",
".. c #CF693D",
"X. c #C96438",
"o. c #D06A3D",
"O. c #835B4A",
"+. c #88634D",
"@. c #9F6446",
"#. c #99654B",
"$. c #836254",
"%. c #8F6755",
"&. c #986853",
"*. c #8B785A",
"=. c #8E7854",
"-. c #B96643",
";. c #B76744",
":. c #A86D53",
">. c #AC7A5A",
",. c #BA7654",
"<. c #A9694E",
"1. c #A27661",
"2. c #A87963",
"3. c #BC7A61",
"4. c #C96C44",
"5. c #D46E43",
"6. c #D67044",
"7. c #D2734C",
"8. c #DB754A",
"9. c #DC764B",
"0. c #CF7954",
"q. c #CD7D5B",
"w. c #C47856",
"e. c #D57B55",
"r. c #DC7B53",
"t. c #D37E5A",
"y. c #CF734C",
"u. c #E07A4F",
"i. c #E17B50",
"p. c #C97F61",
"a. c #7A8365",
"s. c #818455",
"d. c #81845E",
"f. c #898B57",
"g. c #96885C",
"h. c #94935E",
"j. c #898B64",
"k. c #868763",
"l. c #969864",
"z. c #869271",
"x. c #8F9163",
"c. c #BD8369",
"v. c #BA8168",
"b. c #AA986A",
"n. c #B89867",
"m. c #BB8C78",
"M. c #BE907C",
"N. c #9EA067",
"B. c #A3A56A",
"V. c #A9AA6F",
"C. c #BEA266",
"Z. c #B4B56E",
"A. c #AEAD7A",
"S. c #B9B975",
"D. c #B2AF7E",
"F. c #AB865F",
"G. c #D3805C",
"H. c #D68C5A",
"J. c #D49B5F",
"K. c #C58165",
"L. c #CB8364",
"P. c #C7886C",
"I. c #C38B74",
"U. c #CE8D73",
"Y. c #CD976F",
"T. c #DCB46A",
"R. c #C6BA77",
"E. c #C9A767",
"W. c #E1B869",
"Q. c #E08057",
"!. c #C4C575",
"~. c #DAD879",
"^. c #DDC472",
"/. c #E7D476",
"(. c #E7E77D",
"). c #2B7A83",
"_. c #337B85",
"`. c #20A7B5",
"'. c #208493",
"]. c #79A491",
"[. c #5BA8BC",
"{. c #4FA2AB",
"}. c #77ADAA",
"|. c #79B2AC",
" X c #6CB2B2",
".X c #18B8C7",
"XX c #3BA6C9",
"oX c #28B3DA",
"OX c #2DBCD9",
"+X c #43ABCA",
"@X c #45BBCB",
"#X c #50B3C3",
"$X c #1AC6E6",
"%X c #17C9E9",
"&X c #0BD5E7",
"*X c #0DD9F3",
"=X c #13D5EE",
"-X c #27C9E1",
";X c #04E4F9",
":X c #28C5D6",
">X c #93AF91",
",X c #A6BA93",
"<X c #ACBC8F",
"1X c #84B6AA",
"2X c #B79180",
"3X c #BDC088",
/* pixels */
"                                              m.;.-.-.-.-.-.-.-.-.:.1.                                                  ",
"                                      I.I.I.I.K.y.7.7.7.7.7.7.7.y.w.w.P.I.I.I.                                          ",
"                                    P.K.K.K.q.t.i.i.i.i.i.i.i.i.i.r.e.p.K.K.K.M.                                        ",
"                              K.K.L.t.e.e.e.r.r.i.i.i.i.i.i.i.i.i.r.r.e.e.e.t.G.L.K.m.                                  ",
"                            U.K.q.q.r.i.u.9.8.8.8.8.8.8.8.8.8.8.8.8.8.8.9.u.r.r.t.K.P.M.                                ",
"                          L.G.r.r.r.r.u.8.5.} ` ` ` ` ` ` ` ` ` ` ` ` | X.9.i.r.r.r.e.G.L.                              ",
"                        U.q.e.i.u.9.8.6.o. ./ ! ! ! ! ! ! ! ! ! ! ! ! _ } 5.6.8.8.i.r.r.L.I.                            ",
"                      L.G.r.r.i.8.5.} _ ) ! E E E E E E E E E E E E E Q ! _ ` } ..u.i.r.e.t.P.                          ",
"                    U.q.e.9.8.5... ._ ! W Q E E E E E E E E E E E E E E Q ! ! _ } 5.6.6.8.r.L.I.                        ",
"                  L.t.r.8.6. .) / ! Q E E E E E E E E E E E E E E E E E E E E Q ! ) _ } ..r.e.t.I.                      ",
"                U.t.e.9.5. .` ! W Q E E E R Y U P a a a a a a a a P I T E E E E Q ! ! _ | 5.8.e.L.I.                    ",
"              L.q.r.9.6. .! Q E E E E E E T I s & & & & & & & & & r y U E E E E E E E Q / } 5.r.e.t.I.                  ",
"            U.G.e.8.5. .` Q E E E R Y U a s u t $ O O O O O O O $ % * i a P I R E E E E ! )  .5.8.e.L.P.                ",
"          L.q.r.9.6. .! Q E E E E R U a r % $ O X . . . . . . . . o # % & t i T E E E E E E ) } 6.r.e.G.M.              ",
"          G.e.8.5. .` Q E E E E Y U p t % O # o . . . . . . . . . X o # $ % r s I R E E E E ! )  .5.8.e.I.              ",
"          Q.9.6.X.! Q E E E E E U P r $ o . . . . . . . . . . . . . . . . o $ r i R E E E E E Q _ | 8.e.K.c.            ",
"        P.8.5.} _ Q E E E E Y U i t $ o X . . . . . . . . . . . . . . . . X o % r p P E E E E E ! )  .4.q.L.            ",
"      P.q.5...! Q E E E R R U P t $ o . . . . . . . . . . . . . . . . . . . . o $ r p T R E E E E Q _ | 7.t.M.          ",
"      e.4.} _ Q E E E E Y U p r $ o X . . . . . . . . . . . . . . . . . . . . X o $ * i P E E E E E W / | 4.c.          ",
"      7.o.) Q E E E R R U a t $ o . . . . . . . . . . . . . . . . . . . . . . . X o $ r p Y R E E E E Q _ { v.          ",
"      7...! E E E E T U p * $ o X . X + = : , , > > ; @ . . . . . . . . . . . . . . o O * y I E E E E Q ) ] v.          ",
"      4. .W E E R T U s t $ o . . . + @ , q l l l k 0 ; . . . . . . . . . . . . . . X o % r s U T E E E ! ' ,.3.        ",
"  P.,.' ! E E E T I p & $ X . . X X ; 6 z x _.x L L A q ; @ . . . . . . . . . . . . . . o # * y U E E E Q W [ ;.2X      ",
"  q.4._ Q E E E Y I u $ o . . . + @ 6 l )..X.XXX{.].z.A 0 : . . . . . . . . . . . . . . X o & t I E E E E W ' -.m.      ",
"  e.../ E E E E Y P y o . . X X ; 6 z ).`.&X*X-X@X X>Xa.Z f ; ; ; ; ; @ X . . . . . . . . . $ * P E E E E Q / [ c.M.    ",
"  0...! E E R Y I i r X . . + @ 6 l )..X&X;X*X%XOX#X}.>Xl.S q q q q 0 > + . . . . . . . . . O & p I T E E Q / ] c.M.    ",
"  0...! E E T I p % O . X X ; , z x `.*X;X;X*X$XOX+X}.<XR.g.B F H F D g > - - @ X . . . . . o # * y U E E Q / ] c.M.    ",
"  0.../ E E T I i $ o X + = 6 l )..X&X;X;X*X$XoX+X[.1X3XW.J.,.C.!.Z.B.J c 0 0 , @ . . . . . X o & t U E E Q / ] c.M.    ",
"  0...! E E T P u o . X @ : z x `.;X;X;X*X%XoXXX[.|.,XR.T.J.H.T.(.~.!.l.D M M v , @ X . . . . X % r U E E Q / ] c.M.    ",
"  0...! E E T P u o X X ; 6 x `.$X;X;X*X$XoXXX[.|.,XD.n.F.>.>.b.Z.V.V.l.k.j.l.J v , @ . . . . X % r U E E Q / ] c.M.    ",
"  0...! E E T P u o . X : 8 '.%X*X;X*X%XoXXX[.|.,XS.E.=.V V G J d.d.d.k.j.B.S.B.F f : . . . . X % r U E E Q / ] c.M.    ",
"  X.` W E E T P u o . X : 8 _.@X-X=X$XoX+X[.|.,XD.b.*.B e e e g g g g j M J B.B.l.S 4 . . . . X % r U E E E W ( >.v.    ",
"  [ ! E E E T P u o . X : 8 L  X@X$XoXXX[.|.,XR.C.*.b < . . . . . . . @ : v d.N.Z.h.g X X . . X % r U E E E E ^ <.2.    ",
"  ( E E E E T P u o . X ; 7 L ]. X@X#X[.|.,XD.b.*.b 9 ; . . . . . . . + = 4 m H x.d.v > @ . . X % r U E E E E ~ @.2.    ",
"  ( E E E E T P u o . X ; , Z z.>X X|.1X,XR.C.*.b < . . . . . . . . . . . @ : f H J M q : . . X % r U E E E E ~ @.1.    ",
"  ( E E E E T P u o . X @ ; f A z.,X<X<XA.b.*.b 9 - . . . . . . . . . . . + = 4 v D H S 5 . . X % r U E E E E ~ @.1.    ",
"  ( E E E E T P u o . . X X : 8 =.^.^.W.n.*.b < + X . . . . . . . . . . . . X = , m x.l.g . . X % r U E E E E ~ @.1.    ",
"  ( E E E E T P u o . . X X ; 7 =.W.W.E.g.B 9 - . . . . . . . . . . . . . . . = , m l.N.g . . X % r U E E E E ~ @.1.    ",
"  ( E E E E T P u o . . . X ; 7 +.J.J.n.+.5 @ X . . . . . . . . . . . . . . . = , m l.N.g . . X % r U E E E E ~ @.1.    ",
"  ( E E E E T P u o . . . X ; 7 =.W.T.C.K < . . . . . . . . . . . . . . . . . = , m h.l.g . . X % r U E E E E ~ @.1.    ",
"  ( E E E E T P u o . . . X ; 7 f./.~.R.J 4 . . . . . . . . . . . . . . . . . = , v g.h.g . X X % r U E E E E ~ @.1.    ",
"  ( E E E E T P u o . . . X ; 7 f.(.(.!.s.4 . . . . . . . . . . . . . . . X X ; 7 n =.=.g X X X % r U E E E E ~ @.1.    ",
"  ( E E E E T P u o . . . X ; 7 f.(.(.!.s.4 X X . . . . . . . . . . . . . X @ , w B &.#.d . X o % r U E E E E ~ @.1.    ",
"  ( E E E E T P u o . . . X ; 7 f.(.(.!.s.4 . . . . . . . . . . . . . . . @ - 9 b V %.O.3 . . X % r U E E E E ~ @.1.    ",
"  ( E E E E T P u o . . . X ; 7 f.(.(.!.s.4 . . . . . . . . . . . . . . . @ > d O.:.%.B 3 . . X % r U E E E E ~ @.1.    ",
"  ( E E E E T P u o . . . X ; 6 s.~.~.!.s.4 . . . . . . . . . . . . . X X ; 7 b <.<.V n < . . X % r U E E E E ~ @.1.    ",
"  ( E E E E T P u o . . . X ; , S Z.S.S.s.4 . . . . . . . . . . . . . X @ , w B &.#.h < @ . . X % r U E E E E ~ @.1.    ",
"  ( E E E E T P u o . . . X = > M k.B.S.s.5 + X . . . . . . . . . X X @ ; 9 b V &.O.3 . . . . X % r U E E E E ~ @.1.    ",
"  ( E E E E T P u o . . . . + @ 9 M d.S.h.j > @ . . . . . . . . . X @ > q b +.&.%.B 2 . . . . X % r U E E E E ~ @.1.    ",
"  ( E E E E T P u o . . . . . . ; 6 S Z.N.D w : X X . . . . . . X @ ; 0 n $.,.:.$.n < . . . . X % r U E E E E ~ @.1.    ",
"  ( E E E E T P u o . . . . . . - , Z B.B.l.H g > @ . . . . . X @ > 0 b +.&.&.O.h 2 - . . . . X % r U E E E E ~ @.1.    ",
"  ( E E E E T P u o . . . . . . = > M j.V.!.B.D q ; X X X X X @ = 0 n $.w.:.$.n 1 . . . . . . X % r U E E E E ~ @.1.    ",
"  ( E E E E T P u o . . . . . . @ = e M J B.l.J M w 6 6 , , 6 7 0 b +.&.:.O.h 2 @ . . . . . . X % r U E E E E ~ @.1.    ",
"  ( E E E E T P u o . . . . . . X X - , m a.j.k.J N c c c c c v n +.w.:.$.n 1 X X . . . . . . X % r U E E E E ~ @.1.    ",
"  ( E E E E T P u o . . . . . . X . @ = 4 j M M M D F F F D D D C $.:.O.h 2 @ . . . . . . . . X % r U E E E E ~ @.1.    ",
"  ( E E E E T P u o . . . . . . . . X X + @ : < g H j.j.j.k.k.*.$.G G n 1 + X . . . . . . . . X % r U E E E E ~ @.1.    ",
"  ( E E E E T P u o . . . . . . . X X X . . + = 4 j Z Z Z Z M b n n v 2 @ . . . . . . . . . . X % r U E E E E ~ @.1.    ",
"  ( E E E E T P u o + ; : , , , , , , , , , , 6 7 q f f f f f w w w 0 7 , , , , , , , , , 7 = X % r U E E E E ~ @.1.    ",
"  ( E E E E T P u o ; w N                                                                   7 X % r U E E E E ~ @.1.    ",
"  ( E E E E T P u o ; w N                                                                   7 X % r U E E E E ~ @.1.    "
};
