/* XPM */
static char * exit_c_xpm[] = {
"60 60 771 2",
"  	c #0C1317",
". 	c #000F16",
"+ 	c #723F2C",
"@ 	c #B86543",
"# 	c #D6764D",
"$ 	c #DE7A4F",
"% 	c #E17B50",
"& 	c #E27C50",
"* 	c #C56C46",
"= 	c #7C442F",
"- 	c #161719",
"; 	c #001017",
"> 	c #021116",
", 	c #001016",
"' 	c #321F1C",
") 	c #5D3426",
"! 	c #915035",
"~ 	c #C16A46",
"{ 	c #D9774E",
"] 	c #DF7A4F",
"^ 	c #DE794E",
"/ 	c #D97349",
"( 	c #D57046",
"_ 	c #D87349",
": 	c #DD784D",
"< 	c #E27B50",
"[ 	c #CC7049",
"} 	c #9A5539",
"| 	c #643828",
"1 	c #37221D",
"2 	c #001117",
"3 	c #021117",
"4 	c #975438",
"5 	c #BB6744",
"6 	c #D2734B",
"7 	c #DE794F",
"8 	c #E07B50",
"9 	c #C86339",
"0 	c #BD582E",
"a 	c #BB572D",
"b 	c #BB562C",
"c 	c #C56137",
"d 	c #D67146",
"e 	c #DF794E",
"f 	c #E17B4F",
"g 	c #D8764D",
"h 	c #C46C47",
"i 	c #A1593B",
"j 	c #141619",
"k 	c #031116",
"l 	c #001116",
"m 	c #33201C",
"n 	c #8D4E34",
"o 	c #BA6743",
"p 	c #D2744B",
"q 	c #DC794E",
"r 	c #D67147",
"s 	c #CB673D",
"t 	c #B95429",
"u 	c #AC4516",
"v 	c #AB4313",
"w 	c #AA4313",
"x 	c #AA4312",
"y 	c #B55026",
"z 	c #C8643A",
"A 	c #D26D43",
"B 	c #D46F45",
"C 	c #DF7A50",
"D 	c #C36B46",
"E 	c #965237",
"F 	c #643829",
"G 	c #38221D",
"H 	c #021217",
"I 	c #D0724A",
"J 	c #DC784E",
"K 	c #E07A4F",
"L 	c #B75228",
"M 	c #AE481B",
"N 	c #A94211",
"O 	c #A84110",
"P 	c #AD471A",
"Q 	c #BA552B",
"R 	c #D6754D",
"S 	c #2E1E1B",
"T 	c #573125",
"U 	c #894C33",
"V 	c #B96643",
"W 	c #D2744C",
"X 	c #DE784D",
"Y 	c #D97449",
"Z 	c #D67046",
"` 	c #CC683E",
" .	c #AC4616",
"..	c #A94212",
"+.	c #A84111",
"@.	c #A94111",
"#.	c #B65126",
"$.	c #C9643B",
"%.	c #D36E44",
"&.	c #C26B46",
"*.	c #925136",
"=.	c #5E3527",
"-.	c #33211D",
";.	c #011217",
">.	c #031217",
",.	c #563125",
"'.	c #8E4E36",
").	c #B36242",
"!.	c #CD704A",
"~.	c #DB784E",
"{.	c #C9643A",
"].	c #BF5A30",
"^.	c #BE592E",
"/.	c #AF491C",
"(.	c #B75227",
"_.	c #BC572C",
":.	c #C76238",
"<.	c #D3744C",
"[.	c #BC6844",
"}.	c #985438",
"|.	c #131618",
"1.	c #041217",
"2.	c #2F1E1B",
"3.	c #864A33",
"4.	c #B26241",
"5.	c #CC704A",
"6.	c #DD784E",
"7.	c #CD683E",
"8.	c #BA552A",
"9.	c #AF4819",
"0.	c #AD4616",
"a.	c #AC4515",
"b.	c #A44012",
"c.	c #9A3D13",
"d.	c #953B14",
"e.	c #943B14",
"f.	c #943A14",
"g.	c #9A3C13",
"h.	c #A33F12",
"i.	c #A94213",
"j.	c #AB4415",
"k.	c #B85227",
"l.	c #C9653B",
"m.	c #DD774D",
"n.	c #8E4F35",
"o.	c #34211C",
"p.	c #CB6F49",
"q.	c #B0491C",
"r.	c #7B3316",
"s.	c #652D18",
"t.	c #632C19",
"u.	c #622C19",
"v.	c #783217",
"w.	c #973B14",
"x.	c #A53F12",
"y.	c #AE481A",
"z.	c #DE784E",
"A.	c #D1734B",
"B.	c #081217",
"C.	c #2D1E1B",
"D.	c #512E23",
"E.	c #824832",
"F.	c #B16141",
"G.	c #D9744A",
"H.	c #CE693F",
"I.	c #BB552B",
"J.	c #AE4718",
"K.	c #9B3D13",
"L.	c #963B14",
"M.	c #843516",
"N.	c #5A2A19",
"O.	c #30211B",
"P.	c #2A201B",
"Q.	c #2B201B",
"R.	c #281F1B",
"S.	c #55281A",
"T.	c #803316",
"U.	c #923914",
"V.	c #CA653B",
"W.	c #D77147",
"X.	c #DD794F",
"Y.	c #8B4D34",
"Z.	c #593325",
"`.	c #33211C",
" +	c #0F1417",
".+	c #091317",
"++	c #502E23",
"@+	c #844A33",
"#+	c #AA5E3F",
"$+	c #C96E49",
"%+	c #CB653B",
"&+	c #B04A1D",
"*+	c #AA4212",
"=+	c #7D3416",
"-+	c #692E18",
";+	c #662D18",
">+	c #3E231B",
",+	c #251E1C",
"'+	c #221D1C",
")+	c #221E1C",
"!+	c #211D1C",
"~+	c #3C221B",
"{+	c #582919",
"]+	c #632C18",
"^+	c #7A3216",
"/+	c #A74111",
"(+	c #D77248",
"_+	c #CF724A",
":+	c #B46442",
"<+	c #8F5036",
"[+	c #583325",
"}+	c #613728",
"|+	c #A0593C",
"1+	c #C36C47",
"2+	c #AF481A",
"3+	c #AA4314",
"4+	c #A54012",
"5+	c #853616",
"6+	c #5D2A19",
"7+	c #37221B",
"8+	c #33221B",
"9+	c #3B231A",
"0+	c #47251A",
"a+	c #4E261A",
"b+	c #50271A",
"c+	c #51271A",
"d+	c #4A251A",
"e+	c #3C231A",
"f+	c #32211B",
"g+	c #572819",
"h+	c #A23F12",
"i+	c #CB673E",
"j+	c #D77349",
"k+	c #CD714A",
"l+	c #AD603F",
"m+	c #6B3C2B",
"n+	c #0C1518",
"o+	c #6E3D2B",
"p+	c #B16241",
"q+	c #D0734C",
"r+	c #DC784F",
"s+	c #CB663B",
"t+	c #B14B1E",
"u+	c #5D2B19",
"v+	c #3F231B",
"w+	c #261E1C",
"x+	c #46251A",
"y+	c #692E17",
"z+	c #783316",
"A+	c #7C3416",
"B+	c #6E3017",
"C+	c #4A261A",
"D+	c #261F1C",
"E+	c #241E1C",
"F+	c #3B221B",
"G+	c #793117",
"H+	c #C8633A",
"I+	c #BE6844",
"J+	c #78422E",
"K+	c #2C1D1B",
"L+	c #8A4C34",
"M+	c #C06945",
"N+	c #D6754C",
"O+	c #3F241A",
"P+	c #47231C",
"Q+	c #411F1E",
"R+	c #5B261C",
"S+	c #803417",
"T+	c #913A13",
"U+	c #943C12",
"V+	c #953C12",
"W+	c #963C12",
"X+	c #883715",
"Y+	c #52271A",
"Z+	c #49251A",
"`+	c #CA6E48",
" @	c #945137",
".@	c #593326",
"+@	c #32201C",
"@@	c #0F1418",
"#@	c #AD6040",
"$@	c #D57248",
"%@	c #48251A",
"&@	c #682E17",
"*@	c #6F2D1A",
"=@	c #622221",
"-@	c #6F2621",
";@	c #8F3618",
">@	c #9E3D12",
",@	c #A13F11",
"'@	c #A23F11",
")@	c #A34011",
"!@	c #893715",
"~@	c #7F3416",
"{@	c #6E2F17",
"]@	c #3D221B",
"^@	c #B66543",
"/@	c #151718",
"(@	c #633828",
"_@	c #CF6E46",
":@	c #CD683F",
"<@	c #A54011",
"[@	c #9C3D13",
"}@	c #863615",
"|@	c #3C231B",
"1@	c #43241A",
"2@	c #622C18",
"3@	c #823615",
"4@	c #86331A",
"5@	c #752523",
"6@	c #7B2623",
"7@	c #96371A",
"8@	c #A74011",
"9@	c #A44011",
"0@	c #9B3D12",
"a@	c #973C12",
"b@	c #963C13",
"c@	c #873715",
"d@	c #672D18",
"e@	c #3A221B",
"f@	c #813416",
"g@	c #983B14",
"h@	c #CC673E",
"i@	c #D17047",
"j@	c #C96E48",
"k@	c #AC5F3F",
"l@	c #6C3D2B",
"m@	c #181819",
"n@	c #C86C45",
"o@	c #C6643A",
"p@	c #BD582D",
"q@	c #B24C1F",
"r@	c #7F3516",
"s@	c #602B18",
"t@	c #41241B",
"u@	c #622D18",
"v@	c #7E3515",
"w@	c #943B13",
"x@	c #94371A",
"y@	c #7F2624",
"z@	c #802624",
"A@	c #98371A",
"B@	c #993D13",
"C@	c #853615",
"D@	c #7A3217",
"E@	c #BB562B",
"F@	c #D16F47",
"G@	c #BC6744",
"H@	c #77422E",
"I@	c #19181A",
"J@	c #011116",
"K@	c #73402C",
"L@	c #CB6C44",
"M@	c #BE5B31",
"N@	c #B24B1D",
"O@	c #602C18",
"P@	c #41241A",
"Q@	c #45251A",
"R@	c #5F2B19",
"S@	c #7D3415",
"T@	c #933B12",
"U@	c #A03F12",
"V@	c #9A381A",
"W@	c #832724",
"X@	c #822625",
"Y@	c #99361A",
"Z@	c #983C12",
"`@	c #843615",
" #	c #3F241B",
".#	c #5B2A19",
"+#	c #823416",
"@#	c #C05A30",
"##	c #C26A45",
"$#	c #7B432F",
"%#	c #121619",
"&#	c #74402D",
"*#	c #CA6B43",
"=#	c #BA572D",
"-#	c #632D18",
";#	c #933B13",
">#	c #A03F11",
",#	c #9C391A",
"'#	c #842724",
")#	c #822624",
"!#	c #99371A",
"~#	c #983C13",
"{#	c #6A2E17",
"]#	c #40231B",
"^#	c #C26944",
"/#	c #7C432E",
"(#	c #523025",
"_#	c #824730",
":#	c #B6613E",
"<#	c #C4643C",
"[#	c #B55127",
"}#	c #9C3D12",
"|#	c #612C18",
"1#	c #42241A",
"2#	c #923B13",
"3#	c #9E3A18",
"4#	c #8A2C21",
"5#	c #892B21",
"6#	c #9B3819",
"7#	c #A63F12",
"8#	c #A23D15",
"9#	c #A53F13",
"0#	c #833615",
"a#	c #3E241B",
"b#	c #5C2A19",
"c#	c #983B13",
"d#	c #A74010",
"e#	c #BE633E",
"f#	c #874930",
"g#	c #563225",
"h#	c #884E36",
"i#	c #995235",
"j#	c #B25933",
"k#	c #B9572C",
"l#	c #AF4A1E",
"m#	c #813515",
"n#	c #45241A",
"o#	c #5E2B18",
"p#	c #793316",
"q#	c #923A13",
"r#	c #96341B",
"s#	c #95331B",
"t#	c #9F3B15",
"u#	c #A64011",
"v#	c #A13D15",
"w#	c #95341B",
"x#	c #94331B",
"y#	c #9F3B16",
"z#	c #973C13",
"A#	c #7F3515",
"B#	c #642D18",
"C#	c #5E2B19",
"D#	c #7D3316",
"E#	c #BC572B",
"F#	c #B65A32",
"G#	c #9C5334",
"H#	c #8B4E35",
"I#	c #B06342",
"J#	c #B15E3C",
"K#	c #B3552D",
"L#	c #B14C1E",
"M#	c #AB4516",
"N#	c #6C2F17",
"O#	c #2B1F1B",
"P#	c #733116",
"Q#	c #8D3913",
"R#	c #9E3E12",
"S#	c #9F3A15",
"T#	c #9E3A15",
"U#	c #A33E13",
"V#	c #9E3A17",
"W#	c #8B2C1F",
"X#	c #8A2B20",
"Y#	c #9B3818",
"Z#	c #2B1F1C",
"`#	c #3A231B",
" $	c #913914",
".$	c #A43F11",
"+$	c #B14B1C",
"@$	c #B3542A",
"#$	c #B35D39",
"$$	c #B26240",
"%$	c #D0724B",
"&$	c #C86942",
"*$	c #B8552C",
"=$	c #AC4617",
"-$	c #642C19",
";$	c #2D201B",
">$	c #231E1C",
",$	c #55271A",
"'$	c #9D3A19",
")$	c #862923",
"!$	c #842823",
"~$	c #993719",
"{$	c #8C3815",
"]$	c #5B291A",
"^$	c #281F1C",
"/$	c #8D3814",
"($	c #B6532A",
"_$	c #C7673F",
":$	c #D07048",
"<$	c #D26E45",
"[$	c #BA562C",
"}$	c #57281A",
"|$	c #2E201C",
"1$	c #903914",
"2$	c #A33F11",
"3$	c #6D2F18",
"4$	c #42241B",
"5$	c #2E1F1C",
"6$	c #51261A",
"7$	c #963B13",
"8$	c #A7400F",
"9$	c #B8532A",
"0$	c #D16C42",
"a$	c #DD774C",
"b$	c #DF794F",
"c$	c #D36E45",
"d$	c #41231B",
"e$	c #5D2B18",
"f$	c #9D3E12",
"g$	c #42231B",
"h$	c #7C3316",
"i$	c #DE774C",
"j$	c #2C1F1B",
"k$	c #4B251A",
"l$	c #743116",
"m$	c #7B3416",
"n$	c #2C201C",
"o$	c #3A231A",
"p$	c #A43F12",
"q$	c #A64111",
"r$	c #5C2A1A",
"s$	c #612B1A",
"t$	c #1F1D1C",
"u$	c #5A281A",
"v$	c #8C3714",
"w$	c #A64012",
"x$	c #D16C43",
"y$	c #602B1A",
"z$	c #8C3814",
"A$	c #97351A",
"B$	c #96341A",
"C$	c #A03B15",
"D$	c #CB683E",
"E$	c #9F3B17",
"F$	c #8D2D1F",
"G$	c #8C2C1F",
"H$	c #9C3818",
"I$	c #892B22",
"J$	c #882A22",
"K$	c #9A3819",
"L$	c #A53E11",
"M$	c #A73F10",
"N$	c #A73F0F",
"O$	c #A83F10",
"P$	c #A84011",
"Q$	c #CB663C",
"R$	c #D56F45",
"S$	c #C46035",
"T$	c #B04B1F",
"U$	c #872923",
"V$	c #852823",
"W$	c #9A3719",
"X$	c #A13C15",
"Y$	c #94321C",
"Z$	c #93311C",
"`$	c #9E3A16",
" %	c #B04A1E",
".%	c #BE592D",
"+%	c #C55F34",
"@%	c #B55023",
"#%	c #B24D1F",
"$%	c #AB4517",
"%%	c #A43E13",
"&%	c #9D3916",
"*%	c #9C3716",
"=%	c #A23B13",
"-%	c #A94919",
";%	c #B05C24",
">%	c #B46529",
",%	c #B5672A",
"'%	c #B25F25",
")%	c #AC4C19",
"!%	c #A94010",
"~%	c #A84010",
"{%	c #AC4517",
"]%	c #B34D1F",
"^%	c #B75023",
"/%	c #AA4617",
"(%	c #AA4416",
"_%	c #A74012",
":%	c #A53E13",
"<%	c #A43D12",
"[%	c #B15E25",
"}%	c #C1813A",
"|%	c #CA9344",
"1%	c #CB9645",
"2%	c #C3873D",
"3%	c #B46228",
"4%	c #AD4618",
"5%	c #AB4A18",
"6%	c #B15D24",
"7%	c #C0823B",
"8%	c #D3AB52",
"9%	c #DEBE5E",
"0%	c #E0C160",
"a%	c #D7B156",
"b%	c #C3893F",
"c%	c #B56328",
"d%	c #AC4D1A",
"e%	c #953B15",
"f%	c #612A19",
"g%	c #B15C23",
"h%	c #C1823A",
"i%	c #D4AB53",
"j%	c #E6D26A",
"k%	c #F0E575",
"l%	c #F1E877",
"m%	c #E9D86E",
"n%	c #D8B458",
"o%	c #C68B3F",
"p%	c #963C16",
"q%	c #612919",
"r%	c #A73E0E",
"s%	c #B77131",
"t%	c #D1A650",
"u%	c #E4CC66",
"v%	c #F2E977",
"w%	c #F9F780",
"x%	c #FAF982",
"y%	c #F5EF7B",
"z%	c #E9D66C",
"A%	c #D6B156",
"B%	c #BB7936",
"C%	c #973F17",
"D%	c #612818",
"E%	c #A73C0D",
"F%	c #BD833D",
"G%	c #DDC462",
"H%	c #F7F37E",
"I%	c #FAFA82",
"J%	c #FAFB82",
"K%	c #F4EE7B",
"L%	c #E3CF69",
"M%	c #C28C42",
"N%	c #984218",
"O%	c #612718",
"P%	c #9D3A18",
"Q%	c #872922",
"R%	c #A73D0D",
"S%	c #BA803D",
"T%	c #D8C063",
"U%	c #EBE276",
"V%	c #F5F27E",
"W%	c #F7F681",
"X%	c #F0EB7C",
"Y%	c #DECB6A",
"Z%	c #BF8A43",
"`%	c #A03B16",
" &	c #90301D",
".&	c #8F2F1D",
"+&	c #9D3917",
"@&	c #A83F0E",
"#&	c #B06733",
"$&	c #C09653",
"%&	c #D5C069",
"&&	c #ECE479",
"*&	c #F8F681",
"=&	c #F9F982",
"-&	c #DACA6E",
";&	c #C6A159",
">&	c #B46F38",
",&	c #622918",
"'&	c #A33D14",
")&	c #9A3718",
"!&	c #993618",
"~&	c #A13C14",
"{&	c #A84F27",
"]&	c #AA693F",
"^&	c #BD9857",
"/&	c #D9C86C",
"(&	c #E8DF77",
"_&	c #EAE378",
":&	c #DDD070",
"<&	c #C1A15C",
"[&	c #AE7345",
"}&	c #AA552B",
"|&	c #953B16",
"1&	c #A33E14",
"2&	c #A3421B",
"3&	c #9C492A",
"4&	c #A56E41",
"5&	c #BB9757",
"6&	c #C8AB62",
"7&	c #C9AE63",
"8&	c #BF9E5B",
"9&	c #A87545",
"0&	c #9E4F2F",
"a&	c #A2431E",
"b&	c #923915",
"c&	c #602A19",
"d&	c #A33D12",
"e&	c #9A4A2C",
"f&	c #A36740",
"g&	c #A9754A",
"h&	c #AA774B",
"i&	c #A56B43",
"j&	c #9A4D2F",
"k&	c #9A381B",
"l&	c #A13B14",
"m&	c #913815",
"n&	c #5F2A1A",
"o&	c #A63F11",
"p&	c #A33D13",
"q&	c #9E3F1E",
"r&	c #98462B",
"s&	c #954B31",
"t&	c #954C32",
"u&	c #98482D",
"v&	c #9C3F1F",
"w&	c #A53E12",
"x&	c #933A15",
"y&	c #A23D14",
"z&	c #983619",
"A&	c #92311B",
"B&	c #983519",
"C&	c #9C3817",
"D&	c #9B3717",
"E&	c #A23C14",
"F&	c #A43E12",
"G&	c #A23C13",
"H&	c #A03A14",
"I&	c #A03A13",
"J&	c #A13C16",
"K&	c #91301C",
"L&	c #9D3816",
"M&	c #872A22",
"N&	c #843515",
"O&	c #993C11",
"P&	c #9D3D11",
"Q&	c #9F3E11",
"R&	c #943619",
"S&	c #7D2623",
"T&	c #7B2423",
"U&	c #91341A",
"V&	c #9C3C12",
"W&	c #9E3D11",
"X&	c #9A3A14",
"Y&	c #903319",
"Z&	c #8F3219",
"`&	c #973915",
" *	c #9E3E11",
".*	c #A03E11",
"+*	c #5C2919",
"@*	c #4C251A",
"#*	c #753115",
"$*	c #873712",
"%*	c #8B3711",
"&*	c #8D3811",
"**	c #823118",
"=*	c #6E2221",
"-*	c #6D2121",
";*	c #802F19",
">*	c #8A3612",
",*	c #8C3711",
"'*	c #853316",
")*	c #76281E",
"!*	c #75271E",
"~*	c #833117",
"{*	c #7C3214",
"]*	c #522719",
"^*	c #201D1C",
"/*	c #47241A",
"(*	c #6B2E15",
"_*	c #7C3312",
":*	c #803411",
"<*	c #813411",
"[*	c #782E18",
"}*	c #652120",
"|*	c #642020",
"1*	c #752C18",
"2*	c #7F3312",
"3*	c #823411",
"4*	c #722F14",
"5*	c #4C2519",
"6*	c #211D1B",
"                      .   + @ # $ % % % % % % % % % % % % % % % % % % % % % % % % % % & % * = - ;                       ",
"                  > , ' ) ! ~ { ] % % & % ^ / ( ( ( ( ( ( ( ( ( ( ( ( ( ( _ : % % % % < % [ } | 1 2 3                   ",
"                  ,   ) 4 5 6 7 8 % % % % / 9 0 a a a a a a a a a a a b a c d e f % % % % g h i | j 2                   ",
"              k l m ) n o p q % % ^ / r ( s t u v w w w w w w w w w w x w y z A B _ : % % C { D E F G H 3               ",
"              ,   ) 4 o I J K % % / 9 0 a L M N O O O O O O O O O O O O O P y Q b c d e f % C R D i | j 2               ",
"          k l S T U V W q X Y r Z ` t  .v w ..+.+.@.@.@.@.@.@.@.@.@.@.@.+...w x w #.$.%.( / X $ { &.*.=.-.;.>.          ",
"          l   ,.'.).!.~.] Y {.].^.t /.N O O +.+.+.+.+.+.+.+.+.+.+.+.+.+.+.+.O O O P (._.0 :.r e $ <.[.}.=.|.;.          ",
"      1.> 2.T 3.4.5.{ 6.Y 7.8.9.0.a...+.+.@.@.b.c.d.e.e.e.e.e.e.e.f.e.g.h.+.@.+.+.i.j.a.0.k.l.d m.J <.5 n.=.o.>.1.      ",
"      l   T '.4.p.{ 7 / {.8.q.w N N +.+.+.+.+.c.r.s.t.t.t.t.t.t.t.u.t.v.w.x.+.+.+.+.N N N y.(.c d z.J A.5 }.=.|.;.      ",
"  B.  C.D.E.F.5.{ 6.G.H.I.J...+.+.+.@.b.K.L.d.M.N.O.P.Q.Q.Q.Q.Q.Q.R.Q.S.T.U.f.g.h.+.+.+.+.N j.(.V.W.X X.<.o Y.Z.`. +.+  ",
"  >   ++@+#+$+{ 7 G.%+_.&+*++.+.+.+.+.K.=+-+;+N.>+,+'+)+)+)+)+)+)+!+)+~+{+]+;+^+w.x./++.+.+.N M t 9 (+] X._+:+<+[+|.>.  ",
"  . > }+|+1+# 6.G.H._.2+3++.+.+.@.4+K.5+6+7+8+9+0+a+b+b+b+b+b+b+b+c+b+d+e+O.f+g+T.w.h++.+.+.+.*+J.8.i+j+z.~.k+l+m+n+,   ",
"  .   o+p+q+r+G.s+_.t+3++.+.+.@.+.K.=+u+v+w+,+x+y+z+A+=+=+=+=+=+=+=+=+B+C+D+E+F+{+G+w.x.+.+.+.+.w /.8.H+j+7 ~.I+J+- ;   ",
"  K+D.L+M+N+j+H._.2+3++.+.+.+.4+K.5+u+O+0+P+Q+R+S+T+U+V+V+V+V+V+V+W+V+X+-+Y+b+Z+e+{+T.w.h++.+.+.+.*+J.8.i+_ z.`+ @.@+@@@",
"  ++@+#@!.$@l._.t+3++.+.+.@.+.K.=+6+v+%@&@*@=@-@;@>@,@'@'@'@'@'@'@)@'@c.!@~@=+{@C+]@{+G+w.x.+.+.+.+.*+/.8.z j+6 ^@<+[+/@",
"  (@|+M+_@:@_.2+3++.+.+.+.<@[@}@u+|@1@2@3@4@5@6@7@x.8@+.+.+.+.+.+.+.+.9@0@a@b@c@d@0+e@{+f@g@h.+.+.+.+.*+J.8.h@i@j@k@l@m@",
"  o+p+n@o@p@q@3++.+.+.+.+.[@r@s@t@1@u@v@w@x@y@z@A@x.+.+.+.+.+.+.+.+.+./+9@)@'@B@C@y+0+>+N.D@g@x.+.+.+.+.*+&+E@z F@G@H@I@",
"J@K@@ L@M@N@j.+.+.+.+.<@[@c@O@P@Q@R@S@T@U@V@W@X@Y@x.8@+.+.+.+.+.+.+.+.+.+.+.+.)@Z@`@s.%@ #.#+#g@h.+.+.+.+.w 2+@#B ##$#%#",
"  &#@ *#=# .N +.+.+.+.[@r@O@1@Q@-#S@;#>#<@,#'#)#!#x.8@+.+.+.+.+.+.+.+.+.+.+.+./+)@~#`@{#%@]#.#D@g@x.+.+.+.O w b A ^#/#I@",
"(#_#:#<#[#w O +.+.9@}#c@|#P@1#u+S@2#U@/++.3#4#5#6#x./++.+.+.+.+.+.+.+.7#8#8#9#8@+.)@Z@0#]+Q@a#b#+#c#h+8@+.d#+.#.V.e#f#g#",
"h#i#j#k#l#+.+.+.+.}#m#-#n#1#o#p#q#U@<@+.+.8#r#s#t#u#/++.+.+.+.+.+.+.+.v#w#x#y#7#+./+)@z#A#B#Q@t@C#D#c#x.+.O +.&+E#F#G#H#",
"I#J#K#L#M#+.+.@.+.z#N#O+O#d+P#Q#R#u#+.+.+.9#S#T#U#u#+.+.+.+.+.+.+.+.+.V#W#X#Y#x.8@+.+.'@w@r.b+Z#`#;+ $.$/++.+.j.+$@$#$$$",
"%$&$*$=$..+.+.@.+.d.-$;$>$,$`@0@9@+.+.+.+.8@x.x.u#/++.+.+.+.+.+.+.+.+.'$)$!$~$x.8@+.+./+h+{$]$w+^$6+/$'@8@+.+.@.j.($_$:$",
"7 <$[$w O +.+.9@}#5+}$|$]@d@1$2$/++.+.+.+.+.+.+.+.+.+.+.+.+.+.+.+.+.+.,#W@)#!#x.8@+.+.@.+.w.3$4$5$6$D#7$h+8@+.8$+.9$0$a$",
"b$c$[$w O +.+.}#m#2@d$>+e$A+~#<@/++.+.+.+.+.+.+.+.+.+.+.+.+.+.+.+.+.+.,#W@)#Y@x.8@+.+.@.+.f$3@-#g$]@b#h$c#x.+.8$+.9$0$i$",
"7 <$[$w O @.+.7$N#O+j$k$l$Q#R#u#+.+.+.+.+.+.+.+.+.+.+.+.+.+.+.+.+.+.+.,#W@)#!#x.8@+.+.+.+.'@w@m$c+n$o$;+ $p$8@8$+.9$0$a$",
"7 <$[$w O @.+.d.-$;$>$,$`@0@9@/++.+.+.+.+.+.+.+.+.+.+.+.+.+.+.+.+.+.+.,#W@)#!#x.8@+.+.+.+.q$h+{$r$w+^$6+/$'@8@8$+.9$0$a$",
"7 c$[$w O @.+.f.s$>$t$u$v$,@u#+.+.+.+.+.+.w$8#8#9#8@+.+.+.+.+.+.+.+.+.,#W@X@Y@x.8@+.+.+.+.@.+.f.s$>$t$u$v$,@u#8$+.9$x$a$",
"7 <$[$w O @.+.f.y$>$t$u$z$'@/++.+.+.+.+.+.8#A$B$C$7#/++.+.+.+.+.+.+.+.,#W@)#!#x.8@+.+.+.+.@.+.f.s$>$t$u$v$,@u#8$+.9$0$a$",
"r D$L w O @.+.f.s$>$t$u$v$,@u#+.+.+.+.+.+.E$F$G$H$x.8@+.+.+.+.+.+.+.+.3#I$J$K$L$M$N$N$O$P$@.+.f.s$>$t$u$v$,@u#d#+.y Q$R$",
"S$^.T$..+.@.+.f.s$>$t$u$v$,@u#+.+.+.+.+.+.'$U$V$W$x.8@+.+.+.+.+.+.+.+.X$Y$Z$`$x.8@+.+.+.+.@.+.f.s$>$t$u$v$,@u#O +. %.%+%",
"@%#%$%+.+.@.+.f.s$>$t$u$v$,@u#+.+.+.+.+.+.,#W@)#!#x.8@+.+.+.+.+.+.+.+.%%&%*%=%-%;%>%,%'%)%!%~%f.s$>$t$u$v$,@u#+.+.{%]%^%",
"/%(%i.+.+.@.+.f.s$>$t$u$v$,@u#+.+.+.+.+.+.,#W@)#Y@x.8@+.+.+.+.+.+.+.+._%:%<%7#[%}%|%1%2%3%w ~%f.s$>$t$u$v$,@u#+.+.i.u 4%",
"<@u#/++.+.@.+.f.s$>$t$u$v$,@u#+.+.+.+.+.+.,#W@)#!#x.8@+.+.+.+.+.+.+.+.+.+.5%6%7%8%9%0%a%b%c%d%e%f%>$t$u$v$,@u#+.+.+.+.+.",
"<@u#/++.+.@.+.f.s$>$t$u$v$,@u#+.+.+.+.+.+.,#W@)#!#x.8@+.+.+.+.+.+.+.+.~%+.g%h%i%j%k%l%m%n%o%3%p%q%>$t$u$v$,@u#+.+.+.+.+.",
"<@u#/++.+.@.+.f.s$>$t$u$v$,@u#+.+.+.+.+.+.,#W@)#Y@x.8@+.+.+.+.+.+.+.+.r%+.s%t%u%v%w%x%y%z%A%B%C%D%>$t$u$v$,@u#+.+.+.+.+.",
"<@u#/++.+.@.+.f.s$>$t$u$v$,@u#+.+.+.+.+.+.,#W@)#!#x.8@+.+.+.+.+.+.+.+.E%+.F%G%k%H%I%J%w%K%L%M%N%O%>$t$u$v$,@u#+.+.+.+.+.",
"<@u#/++.+.@.+.f.s$>$t$u$v$,@u#+.+.+.+.+.+.P%J$Q%W$x.8@+.+.+.+.+.+.+.+.R%+.S%T%U%V%I%J%W%X%Y%Z%N%O%>$t$u$v$,@u#+.+.+.+.+.",
"<@u#/++.+.@.+.f.s$>$t$u$v$,@u#+.+.+.+.+.+.`% &.&+&x.8@+.+.+.+.+.+.+.+.@&+.#&$&%&&&*&=&X%-&;&>&C%,&>$t$u$v$,@u#+.+.+.+.+.",
"<@u#/++.+.@.+.f.s$>$t$u$v$,@u#+.+.+.+.+.+.'&)&!&~&7#/++.+.+.+.+.+.+.+.~%+.{&]&^&/&(&_&:&<&[&}&|&f%>$t$u$v$,@u#+.+.+.+.+.",
"<@u#/++.+.@.+.f.s$>$t$u$v$,@u#+.+.+.+.+.+.w$1&'&7#8@+.+.+.+.+.+.+.+.+.O +.2&3&4&5&6&7&8&9&0&a&b&c&>$t$u$v$,@u#+.+.+.+.+.",
"<@u#/++.+.@.+.f.s$>$t$u$v$,@u#+.+.+.+.+.+.+.+.+.+.+.+.+.+.+.+.+.+.+.+.+.+.d&)&e&f&g&h&i&j&k&l&m&n&>$t$u$v$,@u#+.+.+.+.+.",
"<@u#/++.+.@.+.f.s$>$t$u$v$,@u#+.+.+.+.+.+.+.+.+.+.+.+.+.+.+.+.+.+.+.+.+.+.o&p&q&r&s&t&u&v&l&w&x&y$>$t$u$v$,@u#+.+.+.+.+.",
"<@u#/++.+.@.+.f.s$>$t$u$v$,@u#+.+.+.+.+.+.+.+.+.+.+.+.+.+.+.+.+.+.+.+._%%%%%7#y&z&A&A&B&X$8@/+f.s$>$t$u$v$,@u#+.+.+.+.+.",
"<@u#/++.+.@.+.f.s$>$t$u$v$,@u#+.+.+.+.+.+.+.+.+.+.+.+.+.+.+.+.+.+.+.+.%%C&D&E&F&G&H&I&G&x.+.+.f.s$>$t$u$v$,@u#+.+.+.+.+.",
"<@u#/++.+.@.+.f.s$>$t$u$v$,@u#+.+.+.+.+.+._%:%%%7#8@+.+.+.+.+.+.+.+.+.J&Z$K&&%x.8@+.+.+.+.@.+.f.s$>$t$u$v$,@u#+.+.+.+.+.",
"<@u#/++.+.@.+.f.s$>$t$u$v$,@u#+.+.+.+.+.+.%%&%L&E&7#/++.+.+.+.+.+.+.+.3#I$M&W$x.+.+.+.+.+.@.+.f.s$>$t$u$v$,@u#+.+.+.+.+.",
"<@u#/++.+.@.+.f.s$>$t$u$v$,@u#+.+.+.+.+.+.X$Y$Z$`$x.8@+.+.+.+.+.+.+.+.,#W@)#!#x.8@+.+.+.+.@.+.f.s$>$t$u$v$,@u#+.+.+.+.+.",
"<@u#/++.+.@.+.f.s$>$t$u$v$,@u#+.+.+.+.+.+.3#I$J$K$x.8@+.+.+.+.+.+.+.+.,#W@)#Y@x.8@+.+.+.+.@.+.f.s$>$t$u$v$,@u#+.+.+.+.+.",
"<@u#/++.+.@.+.f.s$>$t$u$v$,@u#+.+.+.+.+.+.,#W@)#!#x.8@+.+.+.+.+.+.+.+.,#W@)#Y@x.8@+.+.+.+.@.+.f.s$>$t$u$v$,@u#+.+.+.+.+.",
"<@u#/++.+.@.+.f.s$>$t$u$v$,@u#+.+.+.+.+.+.,#W@X@Y@x.8@+.+.+.+.+.+.+.+.,#W@)#!#x.8@+.+.+.+.@.+.f.s$>$t$u$v$,@u#+.+.+.+.+.",
"<@u#/++.+.@.+.f.s$>$t$u$v$,@u#+.+.+.+.+.+.,#W@)#!#x.8@+.+.+.+.+.+.+.+.'$)$!$~$x.8@+.+.+.+.@.+.f.s$>$t$u$v$,@u#+.+.+.+.+.",
"<@u#/++.+.@.+.f.s$>$t$u$v$,@u#+.+.+.+.+.+.,#W@)#!#x.8@+.+.+.+.+.+.+.+.V#W#X#Y#x.8@+.+.+.+.@.+.f.s$>$t$u$v$,@u#+.+.+.+.+.",
"<@u#/++.+.@.+.f.s$>$t$u$v$,@u#+.+.+.+.+.+.,#W@)#!#x.8@+.+.+.+.+.+.+.+.8#w#x#y#7#/++.+.+.+.@.+.f.s$>$t$u$v$,@u#+.+.+.+.+.",
"<@u#/++.+.@.+.f.s$>$t$u$v$,@u#+.+.+.+.+.+.,#W@)#!#x.8@+.+.+.+.+.+.+.+.7#8#8#9#8@+.+.+.+.+.@.+.f.s$>$t$u$v$,@u#+.+.+.+.+.",
"<@u#/++.+.@.+.f.s$>$t$u$z$'@/++.+.+.+.@.+.,#'#)#!#x.+.+.+.+.+.+.+.+.+._%x.x._%+.+.+.+.+.+.@.+.f.s$>$t$u$v$,@u#+.+.+.+.+.",
"<@u#/++.+.@.+.f.s$>$t$u$v$,@u#+.+.+.+.+.+.,#W@)#!#x.8@+.+.+.+.+.+.+.+.9#S#S#U#u#+.+.+.+.+.@.+.f.s$>$t$u$v$,@u#+.+.+.+.+.",
"<@u#/++.+.@.+.f.s$E+t$,$N&O&P&Q&Q&Q&Q&Q&Q&R&S&T&U&V&W&Q&Q&Q&Q&Q&Q&Q&Q&X&Y&Z&`&P& *Q&Q&Q&Q&.*Q&z$+*>$t$u$v$,@u#+.+.+.+.+.",
"<@u#/++.+.@.+.f.s$,+t$@*#*$*%*&*&*&*&*&*&***=*-*;*>*,*&*&*&*&*&*&*&*&*'*)*!*~*>*,*&*&*&*&*&*&*{*]*!+^*u$v$,@u#+.+.+.+.+.",
"<@u#/++.+.@.+.f.s$,+t$/*(*_*:*<*<*<*<*<*<*[*}*|*1*2*<*<*<*<*<*<*<*<*<*[*}*|*1*2*<*<*<*<*<*3*<*4*5*6*^*u$v$,@u#+.+.+.+.+."};
