/* XPM */
static char * floor_xpm[] = {
"60 60 19 1",
" 	c #0C1317",
".	c #0C1216",
"+	c #0D181E",
"@	c #0F1F27",
"#	c #10222C",
"$	c #0F1E27",
"%	c #0D171D",
"&	c #0C1316",
"*	c #132C39",
"=	c #153241",
"-	c #132E3C",
";	c #112632",
">	c #10222B",
",	c #112733",
"'	c #112732",
")	c #0C1115",
"!	c #0C1215",
"~	c #0E1E26",
"{	c #143241",
"                                                            ",
"                                                            ",
"                                                            ",
"                                                            ",
"                                                            ",
"                                                            ",
"                                                            ",
"                                                            ",
"                                                            ",
"                                                            ",
"                                                            ",
"                                                            ",
"                                                            ",
"                                                            ",
"                                                            ",
"                    ....                                    ",
"                                                            ",
"                   +@##$%.&           ..                    ",
"                 . $*==*$ .                                 ",
"                 . $*==-;$%        &.%$@+                   ",
"                   +@>#,-*$ .      . @**@ .                 ",
"                     . #==>..      %$'-*$ .                 ",
"                    .).>==# .    . $*-,@%                   ",
"                     . $*-'$%    ..>==# .                   ",
"                       %$'-*$ .  . #==>..                   ",
"                       . #==# !. %$'-*$ . ..                ",
"                       ..>==# .. $*-'$%                     ",
"                    .. . #==#+~~+#==# .&.%$@+               ",
"                       . #==#@**@#==>... @**@ .             ",
"                   +@$%!&#={##{{##{=# .%$'-*$ .             ",
"                 . @**@..#={##==##{=#..$*-,@%               ",
"                 . $*-'~%#={##{{##{=#.!>==# .               ",
"                   %@,-*$#={##{{##{=#..#==>..               ",
"                   . #={##{{##{{##{=#%~'-*$ .               ",
"                   ..>==##{{##{{##{=#$*-'$%                 ",
"                   . #={##{{##{{##{{##{=# .                 ",
"                   . #={##{{##{{##{{##==>..                 ",
"                   . #==##{{##==##{{##==# .                 ",
"                   . #={##{{##{{##{{##{=# .                 ",
"                   . @**@#==#@**@#==#@**@ .                 ",
"                     +$~+#==#+~~+#==#+~$+                   ",
"                       . @**@ .. @**@ .                     ",
"                      .. +$$+ .. +$$+ ..                    ",
"                                                            ",
"                          ..      ..                        ",
"                                                            ",
"                                                            ",
"                                                            ",
"                                                            ",
"                                                            ",
"                                                            ",
"                                                            ",
"                                                            ",
"                                                            ",
"                                                            ",
"                                                            ",
"                                                            ",
"                                                            ",
"                                                            ",
"                                                            "};
