/* XPM */
static char *f47919757eba4835adb45b67f4c77429T9USoZAgAv5U8LjX[] = {
/* columns rows colors chars-per-pixel */
"60 60 215 2 ",
"   c #030B0E",
".  c #0B120C",
"X  c #050E11",
"o  c #041216",
"O  c #0B1316",
"+  c #0C131A",
"@  c #0D191E",
"#  c #05131A",
"$  c #141516",
"%  c #191816",
"&  c #12151B",
"*  c #1C141C",
"=  c #12191D",
"-  c #1A1718",
";  c #1B1011",
":  c #20161F",
">  c #2D1519",
",  c #331719",
"<  c #0E1D26",
"1  c #0E1926",
"2  c #141A24",
"3  c #111A2B",
"4  c #1C1E2C",
"5  c #1B1922",
"6  c #0F1337",
"7  c #11143E",
"8  c #281825",
"9  c #341C2C",
"0  c #371A2C",
"q  c #3D1F34",
"w  c #351C32",
"e  c #25173B",
"r  c #0F2029",
"t  c #10232D",
"y  c #1C242B",
"u  c #192227",
"i  c #0B2B39",
"p  c #112633",
"a  c #112A36",
"s  c #122D3B",
"d  c #1E2432",
"f  c #13313E",
"g  c #26262D",
"h  c #3F2F2F",
"j  c #292A3E",
"k  c #272634",
"l  c #392439",
"z  c #3F3337",
"x  c #4E1718",
"c  c #4B2215",
"v  c #522315",
"b  c #5B2615",
"n  c #592618",
"m  c #712E15",
"M  c #6E2C12",
"N  c #481623",
"B  c #5A1424",
"V  c #421F34",
"C  c #690C23",
"Z  c #6D1326",
"A  c #6D162A",
"S  c #62162B",
"D  c #711429",
"F  c #6D1A32",
"G  c #700E27",
"H  c #442036",
"J  c #462239",
"K  c #48223A",
"L  c #4E2F30",
"P  c #723038",
"I  c #14164A",
"U  c #331C51",
"Y  c #162546",
"T  c #0A3546",
"R  c #153444",
"E  c #163847",
"W  c #163648",
"Q  c #173849",
"!  c #1A3A4B",
"~  c #183649",
"^  c #1C3A57",
"/  c #152B50",
"(  c #2E2C42",
")  c #27254A",
"_  c #312F46",
"`  c #362C48",
"'  c #243C4B",
"]  c #323048",
"[  c #313843",
"{  c #191864",
"}  c #181762",
"|  c #1B1A79",
" . c #1F2872",
".. c #23326C",
"X. c #233E6D",
"o. c #2F316C",
"O. c #3E316C",
"+. c #2A397F",
"@. c #273777",
"#. c #393476",
"$. c #252C70",
"%. c #6B1F40",
"&. c #4B304B",
"*. c #45336D",
"=. c #48397A",
"-. c #5A367C",
";. c #57306F",
":. c #653579",
">. c #6B2450",
",. c #3F4754",
"<. c #24406F",
"1. c #264379",
"2. c #454855",
"3. c #584958",
"4. c #654644",
"5. c #76495C",
"6. c #6F5355",
"7. c #5A4D60",
"8. c #545B6D",
"9. c #4D5270",
"0. c #7B5866",
"q. c #6E5570",
"w. c #5D6679",
"e. c #5B6677",
"r. c #62687B",
"t. c #79656D",
"y. c #81330E",
"u. c #983B08",
"i. c #823412",
"p. c #8B3516",
"a. c #933913",
"s. c #993C14",
"d. c #A43F07",
"f. c #A43F11",
"g. c #813F25",
"h. c #99411B",
"j. c #A6400A",
"k. c #A74112",
"l. c #A84314",
"z. c #954629",
"x. c #A94F35",
"c. c #8D5651",
"v. c #A55D55",
"b. c #874978",
"n. c #9D6B66",
"m. c #926671",
"M. c #876264",
"N. c #A87170",
"B. c #A7635A",
"V. c #BE827A",
"C. c #2B2B89",
"Z. c #2A3294",
"A. c #343785",
"S. c #4A3B83",
"D. c #573983",
"F. c #653982",
"G. c #32499A",
"H. c #2B478A",
"J. c #354AA2",
"K. c #374BA9",
"L. c #3751A9",
"P. c #3A49B3",
"I. c #3E56BC",
"U. c #3D54B6",
"Y. c #47459B",
"T. c #696F85",
"R. c #697388",
"E. c #7B768C",
"W. c #737F97",
"Q. c #4649A7",
"!. c #5D49A8",
"~. c #474EB5",
"^. c #4A54BC",
"/. c #4751B8",
"(. c #5553BA",
"). c #5853BA",
"_. c #5E51AB",
"`. c #3E4FC1",
"'. c #3E50C0",
"]. c #4256C5",
"[. c #4B56C3",
"{. c #455BCC",
"}. c #4658C9",
"|. c #5556C3",
" X c #555ACA",
".X c #475ED2",
"XX c #4A5ED5",
"oX c #4B5FD9",
"OX c #675CC5",
"+X c #4B63DF",
"@X c #4B62DD",
"#X c #4B63E1",
"$X c #877188",
"%X c #A27F86",
"&X c #76829A",
"*X c #7D8CA5",
"=X c #94879B",
"-X c #A58892",
";X c #868CA4",
":X c #958CA4",
">X c #8591AB",
",X c #9692AA",
"<X c #8B98B2",
"1X c #909FBA",
"2X c #9798B3",
"3X c #91A1BB",
"4X c #9DA1BE",
"5X c #A09BB2",
"6X c #C78882",
"7X c #96A5C2",
"8X c #9CA4C2",
"9X c #A2AAC8",
"0X c #A1B0CF",
"qX c #A3B2D2",
"wX c #A1AED0",
/* pixels */
"O O O O O O O O O O O O O O O O O O O O O O O O O O O O O O O O O O O O O O O O O O O O O O O O O O O O O O O O O O O O ",
"O O O O O O O O O O O O O O O O O O O O O O O O O @ < r r r r r r < < 1 + O O O O O O O O O O O O O O O O O O O O O O O ",
"O O O O O O O O O O O O O O O O O O O O O O O + + < a s f s s f s s s p 1 O O O O O O O O O O O O O O O O O O O O O O O ",
"O O O O O O O O O O O O O O O O O O O O O O + @ < p R W W W W W W W W s r 1 @ O O O O O O O O O O O O O O O O O O O O O ",
"O O O O O O O O O O O O O O O O O O O O O O + < a R W W W W W W W W W W s p 1 O O O O O O O O O O O O O O O O O O O O O ",
"O O O O O O O O O O O O O O O O O O O O O @ < a R W W Q Q W W W R R R R R s t 1 @ O O O O O O O O O O O O O O O O O O O ",
"O O O O O O O O O O O O O O O O O O O O + < a R W Q W W W W W R p t p a R W s p 1 O O O O O O O O O O O O O O O O O O O ",
"O O O O O O O O O O O O O O O O O O O 1 < a R W Q Q W W W W R a < + @ r s R f a < O O O O O O O O O O O O O O O O O O O ",
"O O O O O O O O O O O O O O O O O O + < a R W W Q E W E W R a < @ O O @ r p s a < O O O O O O O O O O O O O O O O O O O ",
"O O O O O O O O O O O O O O O O O + + < a R W W W W W W W f r + O o X X # r s a < O O O O O O O O O O O O O O O O O O O ",
"O O O O O O O O O O O O O O O O O O O @ r a R W W W W W W s < O O O O O @ r s a < O O O O O O O O O O O O O O O O O O O ",
"O O O O O O O O O O O O O O O O O O O O @ t R W W Q W W R s < O & L 4.4.h r i a < O O O O O O O O O O O O O O O O O O O ",
"O O O O O O O O O O O O O O O O O O O O + t R W W Q Q W W s < O 5 4.n.n.4.< i a < O O O O O O O O O O O O O O O O O O O ",
"O O O O O O O O O O O O O O O O O O O O @ t R W W W W W W s < o = 4.n.n.4.r i a < O O O O O O O O O O O O O O O O O O O ",
"O O O O O O O O O O O O O O O O O O O O @ t R W W W W W R s < O = L 4.4.h r i a < O O O O O O O O O O O O O O O O O O O ",
"O O O O O O O O O O O O O O O O O O . . . < s R W ~ W W W f d L 6.c.6.4.z p s a < O O O O O O O O O O O O O O O O O O O ",
"O O O O O O O O O O O O O O O O O O O O O @ r a R W E W W R ' 6.N.6XV.n.6.f T a < O O O O O O O O O O O O O O O O O O O ",
"O O O O O O O O O O O O O O O O @ Y ......^ Y p R W R R W W ' 0.V.6X6XN.6.W T s < O O O O O O O O O O O O O O O O O O O ",
"O O O O O O O O O O O O O O O O 1 ..J.U.L.G.X.R R R a a R W ! 2.0.M.t.6.2.Q W f r O O O O O O O O O O O O O O O O O O O ",
"O O O O O O O O O O O O O O O . 2 @.I.XX{.I.G.X.^ f p p s R W ! ! ' ' ! E R W f < O O O O O O O O O O O O O O O O O O O ",
"O O O O O O O O O O O O O O O O 3 +.].@X@X{.I.G.<.W s a t a R W T T T T a a s s < O O O O O O O O O O O O O O O O O O O ",
"O O O O O O O O O O O O O O @ Y ..G.{.@X@X@X.XI.G.X.^ s p a R W W E W R a / ..../ 6 1 O O O O O O O O O O O O O O O O O ",
"O O O O O O O O O O O O O O 1 ..J.].XX@X@X@X@X.XI.G.X.W R R W Q W W W W ~ @.G.J.@.I 6 O O O O O O O O O O O O O O O O O ",
"O O O O O O O O O O O O O O 3 +.I.oX@X@X@X@X@X@X.XI.G.<.^ R W E W W Q ^ 1.J.I.U.Z.} 7 O O O O O O O O O O O O O O O O O ",
"O O O O O O O O O O O O O O 3 +.].@X@X@X@X@X#X@X@X.XI.G.<.W E W W ! ^ 1.L.].{.'.Z.} 7 O O O O O O O O O O O O O O O O O ",
"O O O O O O O O O O O O O . 2 +.].@X#X@X#X#X#X#X@X@X.XI.G.H.1.X.^ ^ 1.L.{.@XXX`.Z.{ 7 O O O O O O O O O O O O O O O O O ",
"O O O O O O O O O O O O O O 3 A.].@X#X@X@X@X@X@X+X@X@X.X].I.U.G.1.1.L.{.@X@XXX`.Z.{ 7 O O O O O O O O O O O O O O O O O ",
"O O O O O O O O O O O O @ Y ..G.{.@X@XXX{.].].{.@X#X@X#X@X@X.XI.J.L.{.@X@XoX}.P.Z.{ 7 O O O O O O O O O O O O O O O O O ",
"O O O O O O O O O O O O 1 ..J.].@X@X.XI.G.+.A.J.{.@X#X@X@X@X@X.X{.{.oX@XoX}.P.Z.| { 7 O O O O O O O O O O O O O O O O O ",
"O O O O O O O O O O O O 3 @.I.@X#X@X{.P...+ 1 ..P.[.[.[.[.[.|.|.(.|.|.|.^.P.Z.| | } 7 O O O O O O O O O O O O O O O O O ",
"O O O O O O O O O O O O 3 +.].@X@X@X.XU.... . ) #.S.S.S.S.D.F.F.F.F.F.D.S.A.C.| | { I O O O O O O O O O O O O O O O O O ",
"O O O O O O O O O O O O 1 #._.OXOX|.^.J...Y ..#.=.S.S.=.=.-.:.:.:.:.:.-.S.S.Z.C.$.U e * & O O O O O O O O O O O O O O O ",
"O O O O O O O O O O O O * &.b.b.b.q.9.X./ ..J././.^.^.^.^.(.(.(.(.).(.(.^././.Q.*.U w 8 * O O O O O O O O O O O O O O O ",
"O O O O O O O O O O $ > c m s.h.s.P L R Y +.I.oX@XoX@XoXoXoXoXoXoXoXoXoXoXXX}.~.=.V V 0 8 * & + O O O O O O O O O O O O ",
"O O O O O O O O O O $ c m a.d.j.u.y.L p W H.{.#X@X@X@X@X#X@X@X@X@X@X@X@X@X@X.X~.=.J V V 0 8 * O O O O O O O O O O O O O ",
"O O O O O O O O O O % n p.f.d.d.u.y.v / 1.L..X#X#X@X@X+X@X@X@X@X@X@X@X@X@X@XXX~.=.&.7.7.&.9 * O O O O O O O O O O O O O ",
"O O O O O O O O O O % b a.k.k.k.s.y.L ..K.{.@X@X@X@X@X@X@X@X#X@X@X@X@X@X@X@X.X~.=.7.E.E.7.9 * O O O O O O O O O O O O O ",
"O O O O O O O O O O % b a.x.v.v.z.i.v o.Q.|.|. X@X#X#X#X@X@X@X@X@X@X#X@X@X.X^.Y.=.r.;X>XT.2.k X X O O O O O O O O O O O ",
"O O O O O O O O O O % b h.B.-X%Xc.i.v ` ;.F.F.!. X@X#X@X#X@X@X@X@X@X@X@XXX[.Y.O.` r.<X7X>XR.2.O X O O O O O O O O O O O ",
"O O O O O O O O O O % b z.n.-X=XM.M x N S F %.:._.|. X X@X#X#X#X@XoX{.[.^.Q.*.w g w.1X0X7X>Xr.2.g X X O O O O O O O O O ",
"O O O O O O O O O O % b z.N.,X;Xq.v B S Z Z A >.:.F.F.!. X@X#X@XXX[.Y.S.=.*.&.0 g w.3XqX0X3X>XR.,.O X O O O O O O O O O ",
"O O O O O O O O O O $ v g.m.,X<XR.3.P A D A A A F F %.-.~.].].].^.Q.*.K K J H 0 k 8.;X7X0X0X7X>Xr.,.g X X O O O O O O O ",
"O O O O O O O O O O & , L t.2X7X>XE.5.D G A A A D Z A >.O.+.+.#.=.*.&.H H H V V q &.8.&X7XqX0X7X>XR.,.O X O O O O O O O ",
"O O O O O O O O O O O O y w.1XwX8X;X0.G G A D A A A B N 8 1 2 9 l K K J J K H H V 9 g 8.;X1X1X1X1X>XT.2.k O O O O O O O ",
"O O O O O O O O O O O X u w.3X0X9X:X0.D G A A A A B N > ; . O : V J J J J J J V q 9 5 [ 8.e.w.W.1X7X>XR.2.O X O O O O O ",
"O O O O O O O O O O O O u w.3X0X9X2X$X5.P A A A B N > O O O + 8 9 H H J J H J H q 9 : + = = y 8.*X<X*XR.2.O X O O O O O ",
"O O O O O O O O O O O O u w.1XqXqX8X,X$X5.A C B N > - O O O + & 8 9 H J J J J H q 9 : O X   O [ 8.e.8.2.j O O O O O O O ",
"O O O O O O O O O O O O 2 8.*X7X0X0X4X:X0.Z C B , O O O O O O + & 8 0 H H J J H q 9 : O O O O + = = = = O O O O O O O O ",
"O O O O O O O O O O O O = [ 8.&X7XqX9X:X0.A C B , O O O O O O O O $ 8 9 H J J H l 9 : O O O O O X     O O O O O O O O O ",
"O O O O O O O O O O O O O + y 8.;X8X8X2X$X5.P N > O O O O O O O O O & 8 l J J J l 9 5 O O O O O O O O O O O O O O O O O ",
"O O O O O O O O O O O O O O $ &.t.=X4X8X,XE.3.> ; O O O O O O O O O @ 4 j ` ` ` j k 5 O O O O O O O O O O O O O O O O O ",
"O O O O O O O O O O O O O O $ N P m.:X5X:XE.2.O X O O O O O O O O O @ 4 ( ] ] _ _ j d 2 & O O O O O O O O O O O O O O O ",
"O O O O O O O O O O O O O o $ v p.c.n.N.n.0.L O X O O O O O O O O O @ 4 ( ] ] ] _ ( j d 2 O O O O O O O O O O O O O O O ",
"O O O O O O O O O O O O O O % n a.k.l.l.h.m c O o O O O O O O O O O @ 4 ( ] ] ] ] _ ( j d 2 = O O O O O O O O O O O O O ",
"O O O O O O O O O O O O O O % b a.j.j.d.u.y.v O o O O O O O O O O O @ 4 ( ] ] ] ] ] _ ( j k 2 O O O O O O O O O O O O O ",
"O O O O O O O O O O O O O O % b a.k.l.k.s.i.v O o O O O O O O O O O + 4 k j ( j j ( j j j k 2 O O O O O O O O O O O O O ",
"O O O O O O O O O O O O O o - b a.k.k.f.s.i.v O # O O O O O O O O O O = 2 4 4 4 4 4 4 4 4 2 = O O O O O O O O O O O O O ",
"O O O O O O O O O O O O O O $ v i.a.a.a.i.M c O o O O O O O O O O O O O + + + O + + + + + + O O O O O O O O O O O O O O ",
"O O O O O O O O O O O O O O & , v b b n v c > O O O O O O O O O O O O O O O O O O O O O O O O O O O O O O O O O O O O O ",
"O O O O O O O O O O O O O O O O $ $ $ $ $ $ O + O O O O O O O O O O O O O O O O O O O O O O O O O O O O O O O O O O O O "
};
