/* XPM */
static char * wall_xpm[] = {
"60 60 56 1",
" 	c #323C39",
".	c #313B38",
"+	c #464B4A",
"@	c #5E6160",
"#	c #696A6A",
"$	c #313C39",
"%	c #373F3D",
"&	c #414846",
"*	c #515554",
"=	c #616363",
"-	c #454B49",
";	c #454B4A",
">	c #464C4A",
",	c #4D5251",
"'	c #595C5B",
")	c #5E6060",
"!	c #5F6160",
"~	c #676868",
"{	c #38413E",
"]	c #404745",
"^	c #555958",
"/	c #666868",
"(	c #4D5150",
"_	c #555857",
":	c #37403D",
"<	c #5D5F5F",
"[	c #424746",
"}	c #6A6B6B",
"|	c #626463",
"1	c #5C5D5D",
"2	c #3C3F3F",
"3	c #5B5C5C",
"4	c #37393A",
"5	c #6A6B6A",
"6	c #6A6A6A",
"7	c #383A3B",
"8	c #5F6060",
"9	c #494A4B",
"0	c #666867",
"a	c #666767",
"b	c #5F6161",
"c	c #414745",
"d	c #545857",
"e	c #38403E",
"f	c #656666",
"g	c #494B4B",
"h	c #434545",
"i	c #535455",
"j	c #5E605F",
"k	c #535555",
"l	c #363A3A",
"m	c #323A38",
"n	c #525555",
"o	c #3F4544",
"p	c #303B37",
"q	c #555858",
"     . +@############@+ .      . +@##################@+ .   ",
"   $.%&*=############=*+-++++;+;>,')!=~##############)+{]+++",
"   . &^=~############/=@)@@@@@@!@'(--*=##############)+&_@!@",
".. :&*=####~=@))@=~############~=^&..&^=~############<[[<###",
" . &^=~####=*+--+*=##########}#|*&:..%&*=############1221#}#",
"+]:-)####~=^& .. &^=~##########)-..  ..-)##########}#3443#5#",
"@_&+@#6##=*&%....%&*=##########)-..  ..-)##########6#3773#6#",
"#=**=####@+ .    . +@##########=*&%..%&*=#}~=@)@@)@|~8998###",
"#~==0####)-..    ..-)##########~=^&..&^=~##=*+-++-+*=ab8a###",
"#########)-..    ..-)############=*--*=#}~=^& .  . &^=~#####",
"#########@+ .    . +@############~=))=~}#=*&%......%&*|#####",
"#0==0####=*&%....%&*=##################~=^& .      . &^=~###",
"#=**=####~=^& .. &^=~################}#=*&%.$      $.%&*=###",
"#)++)#6####=*+--+*=##################~=^& .          . ;@#}#",
"#)--)######~=@))@=~##################=*&%.$          ..-)###",
"#@+cd=~##############################@+ .            . +@/|@",
"#)+:]*=##############################)-..            . >@=*+",
"@^c%]*=##############################@+ .            ..+))+.",
"+cec_=~##############################@+ .            . >@)+.",
".%&*=################################)-..          $.%&*==*+",
".]^=~################################@+ .          . &^=~/=@",
"+*=##################################=*&%.$      $.%&*=#####",
"@=~##################################~=^& .      . &^=~#####",
"#############~=@))@=~##################=*&%......%&*=#######",
"#############=*+--+*=##################~=^& .  . &^=~#######",
"###########~=^& .. &^=~##################=*+-++-+*=#########",
"###########=*&%....%&*=##################~=@)@@)@=~#########",
"#########~=^& .    . &^=~##############################~=@)@",
"#########=*&%.$    $.%&*=##############################=*+-+",
"@=~######@+ .        . &^=~########~=))=~############~=^& . ",
"+*=######)-..        $.%&*=########=*--*=############=*&%...",
" &^=~####)-..          . +@######~=^&..&^=~##########)-..   ",
".%&*=####@+ .          ..-)######=*&%..%&*=##########)-..   ",
" . +@####=*&%.$        . +@######)-..  ..-)##########=*&%...",
" ..-)####~=^& .        . +@######)-..  ..-)##########~=^& . ",
" ..-)######=*&%.$      ..-)######=*&%..%&*=############=*+-+",
" . +@######~=^& .      . +@######~=^&..&^=~############~=@)@",
".:&*|########=*&%......%&*=########=*--*=#}#################",
" &^=~########~=^& .  . &^=~########~=))=~###################",
">,')!=~########=*+-++-+*=################~=))=~#############",
"@',+;*=########~=@)@@)@=~##############}#=*--*=#############",
"@^&..&^=~##############################~=^&..&^=~###########",
">&:..%&*=##############################=*&%..%&*=###########",
"     ..-)############################~=^& .  . &^=~#########",
"..   ..-)############################=*&%.$  $.%&*=#########",
"     :&*=##########################6#!+ .      . &^=~f88a#}#",
"   . &^=~############################)-..      $.%&*=8g98###",
"   ..-)##########~=@))@=~##########~=^& .        ..+)8ghi1j@",
"   . +!#6########=*+--+*=##########=*&:          ..-)a8kh2[+",
"...%&*=########~=^& .. &^=~########)-..        $.%&*=##89lm.",
" . &^=~########=*&%....%&*=########)-..        . &^=~##a8no.",
"+-+*=##########)-..    . &^=~######=*&%.$   ...%&*=#}##}#=*+",
"@)@=~##########)-..    $.%&*=######~=^& .    . &^=~######~=@",
"###############=*&%...  .p.-)########=*&%..:&-+*=#}~=))=~###",
"###############~=^& .    ..-)########~=^&..&^)!=~}#=*--*=#}#",
"#################=*+-c::c-+*=##########=*--*=####~=qc..cq=~#",
"#################~=!)q&&q)!=/##########~=))=~#6}#=*&%..%&*=#",
"#########0==0########=**=########################=*&:  :&*=#",
"#########=**=######6#~==~#6######################~=qc..cq=~#",
"#########)++)######################################@+..+@###"};
